<?xml version="1.0" encoding="UTF-8"?>
<svg width="310px" height="187px" viewBox="0 0 310 187" version="1.1" xmlns="http://www.w3.org/2000/svg" xmlns:xlink="http://www.w3.org/1999/xlink">
    <!-- Generator: sketchtool 54.1 (76490) - https://sketchapp.com -->
    <title>4BD8D589-8D05-4692-826E-9C4903AC345C</title>
    <desc>Created with sketchtool.</desc>
    <g id="Page-1" stroke="none" stroke-width="1" fill="none" fill-rule="evenodd">
        <g id="Mobile" transform="translate(-9.000000, -65.000000)" fill-rule="nonzero">
            <g id="Ilustración" transform="translate(2.000000, -9.000000)">
                <g id="floating-people" transform="translate(0.000000, 0.500000)">
                    <g id="Layer_1-3" transform="translate(0.000000, 78.500000)">
                        <path d="M61.6396377,143.014751 C62.7883483,143.070714 57.629433,134.078354 57.629433,134.078354 C57.629433,134.078354 46.2921582,131.984162 42.9400383,132.861896 C38.3216927,134.078354 34.7316046,131.147663 32.1638984,135.807314 C30.2983453,139.200435 37.6489184,142.499303 37.6489184,142.499303 C39.0209079,140.838087 47.9696871,140.867541 51.0809008,147.306224 C51.0926523,147.315061 60.4879891,142.955843 61.6396377,143.014751 Z" id="Shape" fill="#FFB900"></path>
                        <path d="M82.2606098,47.3534785 C87.8425798,40.2844763 77.8067854,34.5850933 74.7778322,39.0385647 C71.6842457,33.0299128 54.303754,33.7633218 51.1190933,50.4520578 L43.336652,67.5354798 C37.6929866,78.1978915 24.2786314,77.7590243 23.0535359,92.8277806 C22.6686738,106.01147 29.9487377,110.191017 33.3978076,110.794828 C28.0596816,123.560268 40.4017109,135.863277 48.9685659,137.36544 C71.5491033,141.321136 79.6165188,118.196662 79.6165188,118.196662 L82.2606098,47.3534785 Z" id="Shape" fill="#442CB3"></path>
                        <path d="M74.9452913,39.3772877 C75.656258,37.4774934 76.6375096,36.2580905 78.5882612,36.3552893" id="Shape" stroke="#502CC5" stroke-width="1.5" fill-opacity="0" fill="#000000" stroke-linecap="round" stroke-linejoin="round"></path>
                        <path d="M67.0071425,98.5831266 C67.0071425,98.5831266 69.3574456,103.643354 70.5942926,104.906938 L75.3507186,90.5156278 L71.5491033,90.2593765 L67.0071425,98.5831266 Z" id="Shape" fill="#FFCF00"></path>
                        <path d="M49.4474402,44.4758055 C46.9649325,45.7305534 50.6754735,50.3666407 49.112522,50.8791434 C47.5495704,51.391646 41.6150549,38.9767109 38.9151442,40.3139305 C36.2152335,41.6511501 44.4207293,49.0559299 43.1780065,49.8865377 C42.5375489,50.3136232 37.0613426,41.1622108 35.0107031,42.9235705 C32.9600636,44.6849302 41.7678246,51.3828098 40.9657837,52.4932322 C40.4634064,53.1883508 34.6346546,44.8351465 32.8807409,46.4109449 C31.3207272,47.8100183 39.9845321,54.9055292 39.4674655,55.4474861 C38.3951396,56.5726356 34.0500167,49.5036334 32.4400591,51.1353947 C30.8301014,52.7671561 37.0202123,57.3207716 38.556723,58.7669717 C40.0932337,60.2131717 42.002855,61.2205045 41.929408,67.2910102 C41.855961,73.3615158 40.3341397,88.4773989 39.5967321,94.565577 C37.6959245,110.241089 53.7866873,119.395447 67.844438,99.1103563 L71.5226624,94.8424463 C71.5226624,94.8424463 75.3830353,83.0607759 75.7767111,82.5070374 C71.6372397,81.0107653 68.3644425,79.1728247 62.4446165,86.1829186 C56.5247905,93.1930124 50.9163796,100.344486 51.6038433,96.265083 C55.152801,75.1641114 55.1998071,67.5502069 54.4447722,59.361946 C54.1157298,55.8097724 52.4940206,42.9324067 49.4474402,44.4758055 Z" id="Shape" fill="#FFCF00"></path>
                        <path d="M85.1984888,81.5173771 C97.7021015,80.5453893 114.118969,78.7398483 118.984096,58.8111529 C123.828659,38.9796563 141.79085,36.1078742 145.110654,35.972385 C145.736422,35.9458762 154.106439,35.3008298 154.135818,37.150552 C154.156383,38.6232608 144.916754,37.989996 144.999014,39.4332506 C145.054834,40.3846205 155.140572,37.7307993 155.516621,40.0223342 C155.892669,42.313869 146.544339,41.1327566 146.826375,42.3933953 C147.108411,43.654034 157.108951,41.2329008 157.164771,43.3388744 C157.208839,45.2975771 147.813502,44.281408 147.922204,45.6657543 C148.030905,47.0501005 157.799353,45.0766707 157.943309,46.5965062 C158.157774,48.8703686 150.011036,48.1781955 147.099598,48.3401934 C143.515385,48.5404818 133.250436,49.6597405 128.59096,69.8623597 C124.498495,87.6526819 94.6202665,94.7099025 83.1272841,95.6053094 L85.1984888,81.5173771 Z" id="Shape" fill="#FFCF00"></path>
                        <path d="M74.3753428,42.0193273 C76.384852,48.8468052 77.1780793,53.3120583 73.3676503,61.6240267 C73.3676503,61.6240267 68.716988,58.5077749 66.6457834,61.9038414 C64.5745787,65.2999079 69.8950775,70.6664587 74.0668655,67.1849751 C74.0668655,67.1849751 77.063502,70.8903105 75.7767111,79.4585302 C75.7767111,79.4585302 79.927934,82.4039478 84.9135145,78.5513416 C82.3661732,76.5466454 80.5991856,73.7111687 79.9191203,70.5368603 C79.9191203,70.5368603 85.2983766,70.8048933 87.7926359,70.5604237 C90.2868951,70.315954 92.2493982,69.3969837 91.0389921,66.4368391 C89.8285859,63.4766944 87.0669798,59.2971468 88.2274419,57.1587737 C89.3879041,55.0204005 92.0466845,53.39453 91.6206921,51.5477532 C91.1946996,49.7009763 85.7449342,52.9586082 83.4563266,48.8762594 C81.1677189,44.7939106 76.9724278,41.2918091 74.3753428,42.0193273 Z" id="Shape-2" fill="#FFCF00"></path>
                        <path d="M71.1172351,77.6470984 C71.3904578,77.6912797 71.6666184,77.7118976 71.9339654,77.7766968 C73.1972534,78.0859656 74.3929701,78.6426495 75.6591959,78.9548638 C77.0886549,79.3139702 78.560713,79.4735468 80.0336976,79.429076 C83.3094326,79.2228968 88.7944526,76.9578707 88.9736632,78.088911 C89.1528738,79.2199514 87.1903707,81.2169445 87.1903707,81.2169445 C88.0541071,81.2758529 89.4202208,82.4157295 91.1418178,85.7411059 C92.8634149,89.0664824 101.004277,89.1371724 102.01197,95.1517151 C102.863955,100.217833 97.6227787,102.995362 97.6227787,102.995362 C97.2055999,105.328133 95.8159832,110.791882 98.0399575,113.516394 C98.4188514,113.987727 98.7719174,114.479355 99.097594,114.989103 L77.5600036,119.557445 C74.3283368,114.078969 71.6343018,108.300059 69.0401547,102.494641 C72.8212049,94.798265 74.0169216,81.9179539 74.0169216,81.9179539 C74.0169216,81.9179539 69.5131532,79.3701677 70.3386972,78.0329481 C70.5267214,77.7207338 70.7735033,77.714843 71.1172351,77.6470984 Z" id="Shape" fill="#FE5171"></path>
                        <path d="M49.9439417,147.038191 C49.9028114,146.837903 56.6041132,141.294627 62.3858589,141.321136 C62.3858589,141.321136 64.9976333,154.811148 71.8164503,157.53566 C71.8164503,157.53566 73.0885518,168.000728 59.0308012,168.000728 C59.0190497,168.000728 52.4088221,159.190984 49.9439417,147.038191 Z" id="Shape-3" fill="#532C9B"></path>
                        <path d="M42.9517899,150.06019 C37.3110623,143.736378 38.2688109,136.034111 32.7103439,134.420022 C27.151877,132.805934 27.4221619,137.347767 23.7028072,138.431681 C21.5375904,139.062 18.0150736,138.658478 15.5237522,140.449292 C13.0324309,142.240106 12.1775081,145.267995 11.1463126,146.045586 C10.1151171,146.823176 6.5926003,150.31055 8.4052716,152.201508 C10.8319596,154.737513 12.156943,151.344392 14.3662279,150.360622 C19.7014161,148.004288 29.0996907,148.166286 32.17565,155.406123 C38.9503988,154.04534 42.9517899,150.06019 42.9517899,150.06019 Z" id="Shape" fill="#FFCF00"></path>
                        <path d="M43.9771096,148.449046 C43.9771096,148.449046 54.8472616,169.025734 63.9546863,165.82701 C73.0621109,162.628287 76.1468838,135.421464 76.4112929,131.389188 C76.7579626,126.110999 76.7814657,123.848919 77.5394384,119.548609 L99.0887803,114.980266 C113.892752,132.652772 109.151016,174.439411 77.7127733,176.945961 C53.6926752,190.874841 31.0416287,168.477886 31.1738333,154.442971 L43.9771096,148.449046 Z" id="Shape" fill="#6C40BE"></path>
                        <path d="M43.9771096,148.449046 C43.9771096,148.449046 41.6268065,148.198686 37.0378396,149.971827 C32.4488727,151.744969 31.1826469,154.454753 31.1826469,154.454753" id="Shape" fill="#6D4DD6"></path>
                        <path d="M74.1579398,82.0652248 C73.0532973,82.5129283 71.895773,84.1653075 73.4381594,84.0416 C74.0903686,83.985637 75.1773838,83.2227739 75.923605,83.6351324 C77.2192096,84.3567597 76.0646232,86.4273882 77.5423763,86.2153182 C78.5618203,86.0680473 77.4630536,83.4201169 79.3051036,84.0327637 C80.583081,84.4598493 79.7193446,86.7867292 81.5937113,86.5510958 C82.9421978,86.3802615 82.2282932,83.4613527 83.5444629,83.7529491 C84.6961115,84.0092004 85.3071903,86.65124 87.0699176,85.6262346 C88.3802116,84.8604261 86.5734161,83.7588399 86.9288995,83.2227739 C87.7338783,82.0122073 89.6611269,84.8898802 90.5571799,83.2227739 C91.8586603,80.7986952 88.7210056,81.2257808 87.545854,81.5055954" id="Shape" stroke="#FFFFFF" stroke-width="1.5" fill-opacity="0" fill="#000000" stroke-linecap="round" stroke-linejoin="round"></path>
                        <path d="M73.3794019,86.6335675 C69.348632,90.7924971 74.6426898,88.1710754 75.0657444,88.5952156 C75.7443944,89.275607 74.4223489,90.6746804 75.0216762,91.5730327 C76.1703868,93.3049383 77.0958187,89.8853085 77.7891581,89.7674918 C79.2257809,89.5289129 78.0447536,92.2946601 79.7222825,92.2946601 C81.285234,92.2946601 80.5537022,89.0547007 82.1313432,89.4081508 C83.4680781,89.7174197 82.9275084,92.0089545 84.8753221,91.617214 C86.5734161,91.278491 85.5275312,88.7984494 86.9318373,88.7984494 C88.2127525,88.7984494 88.5212298,91.1400564 90.5983102,90.4449378 C92.4168573,89.8381818 89.8403375,87.2992318 90.7775208,86.8809825 C91.1770724,86.7042575 94.7965392,88.6482331 94.511565,86.6777487 C94.2559695,84.881044 92.3669133,84.8162448 90.8627193,84.8604261" id="Shape" stroke="#FFFFFF" stroke-width="1.5" fill-opacity="0" fill="#000000" stroke-linecap="round" stroke-linejoin="round"></path>
                        <path d="M85.6920524,61.1203603 C86.6921583,61.1730966 87.6824796,60.9003436 88.5153541,60.3427701" id="Shape" stroke="#FE5171" stroke-width="1.5" fill-opacity="0" fill="#000000" stroke-linecap="round" stroke-linejoin="round"></path>
                        <path d="M46.1246991,108.900924 C45.7486506,107.042366 47.678837,106.824405 48.504381,107.301563 C49.7294765,108.005517 49.911625,109.716805 48.383928,109.640224 C48.0049416,109.619606 47.291037,109.301501 47.1059507,108.930379 C46.6593931,108.032026 47.9403083,107.858247 48.3721765,108.6594" id="Shape" stroke="#DF3958" fill-opacity="0" fill="#000000" stroke-linecap="round" stroke-linejoin="round"></path>
                        <path d="M124.61601,75.7414132 C123.405604,74.427757 121.560616,77.2936483 122.065931,78.1743281 C122.394974,78.7427937 123.12063,78.9047917 123.93736,77.8267689 C125.209462,76.1449354 123.238145,76.1684988 122.826842,77.5322271" id="Shape" stroke="#DF3958" fill-opacity="0" fill="#000000" stroke-linecap="round" stroke-linejoin="round"></path>
                        <path d="M68.279244,63.5915657 C69.4543956,61.8243151 71.5520412,62.8905563 72.4862867,64.3426472" id="Shape" stroke="#DF3958" stroke-width="1.5" fill-opacity="0" fill="#000000" stroke-linecap="round" stroke-linejoin="round"></path>
                        <path d="M71.6842457,63.6563649 C70.7147457,63.9214524 70.6148578,64.4369005 70.5090942,65.2203816" id="Shape" stroke="#DF3958" stroke-width="1.5" fill-opacity="0" fill="#000000" stroke-linecap="round" stroke-linejoin="round"></path>
                        <path d="M92.7899679,141.397717 C94.1296407,149.724412 93.7065861,155.859717 89.1293708,165.290944 C84.5521554,174.722171 79.3991158,176.804581 79.3991158,176.804581 C79.3991158,176.804581 78.3620445,176.925344 77.7215869,176.954798 C82.0990265,174.430575 85.0662842,170.728185 88.104051,164.825568 C91.8435242,157.677736 93.1829512,149.511056 91.9232936,141.539097 C91.8812602,141.427138 91.8894227,141.302444 91.9456907,141.196953 C92.0019586,141.091462 92.1008663,141.01542 92.2170815,140.988304 C92.6460118,140.85576 92.7899679,141.397717 92.7899679,141.397717 Z" id="Shape" fill="#502CC5"></path>
                        <path d="M77.9272384,119.180432 C75.7767111,119.041997 75.0863095,121.857816 77.2926566,122.240721 C80.2981067,122.759114 98.4923909,117.89623 100.713427,117.127476 C102.934464,116.358722 101.715244,113.592975 99.0094576,114.685725 C96.3036711,115.778474 79.1582097,119.259958 77.9272384,119.180432 Z" id="Shape" fill="#6D4DD6"></path>
                        <path d="M91.7940269,125.745768 C92.7282724,119.124469 97.2937363,121.053717 91.8704118,125.878311" id="Shape" stroke="#FFFFFF" stroke-width="3" fill-opacity="0" fill="#000000" stroke-linecap="round" stroke-linejoin="round"></path>
                        <path d="M91.767586,125.716313 C87.5282268,119.398393 87.2638176,128.2317 91.9849891,125.863584" id="Shape" stroke="#FFFFFF" stroke-width="3" fill-opacity="0" fill="#000000" stroke-linecap="round" stroke-linejoin="round"></path>
                        <path d="M91.7822754,126.081545 C90.9176432,127.595214 90.448724,129.30346 90.4190996,131.047519" id="Shape" stroke="#FFFFFF" stroke-width="3" fill-opacity="0" fill="#000000" stroke-linecap="round" stroke-linejoin="round"></path>
                        <path d="M92.034933,126.110999 C93.4862452,127.265603 93.9122377,129.306777 93.976871,131.253698" id="Shape" stroke="#FFFFFF" stroke-width="3" fill-opacity="0" fill="#000000" stroke-linecap="round" stroke-linejoin="round"></path>
                        <path d="M81.529078,52.4667235 C81.2529174,52.5815947 80.8416143,52.2369809 80.6183355,51.6920786 C80.3950567,51.1471764 80.4332492,50.6140558 80.7123477,50.4991845 C80.9914461,50.3843132 81.3998113,50.7289271 81.626028,51.2708839 C81.8522447,51.8128408 81.8081765,52.3489068 81.529078,52.4667235 Z" id="Shape" fill="#000000"></path>
                        <path d="M44.7145172,56.7847056 C45.5958809,56.7405244 47.2557825,58.4812662 47.4144279,59.8155403" id="Shape" stroke="#DF3958" stroke-width="1.5" fill-opacity="0" fill="#000000" stroke-linecap="round" stroke-linejoin="round"></path>
                        <path d="M74.5809943,103.72288 C78.0300642,107.743375 84.6373539,107.328071 88.9325329,103.637463" id="Shape" stroke="#CB314D" stroke-width="3" fill-opacity="0" fill="#000000" stroke-linecap="round" stroke-linejoin="round"></path>
                        <path d="M133.215182,42.0723448 C143.791546,36.685176 144.205787,40.5495639 135.315765,44.6525306" id="Shape" stroke="#FE5171" stroke-width="1.5" fill-opacity="0" fill="#000000" stroke-linecap="round" stroke-linejoin="round"></path>
                    </g>
                    <g id="Layer_25" transform="translate(165.485228, 73.500000)">
                        <path d="M57.8986245,87.6411611 L84.6933235,85.3933467 L86.0612387,54.8915088 L84.2999745,53.7322029 L80.8420259,52.7734895 L72.4407957,52.7734895 L67.5268687,52.9770317 C67.5268687,52.9770317 64.2978843,53.9121461 64.2978843,53.9121461 C64.2978843,53.9121461 61.3947339,60.3252018 61.3947339,60.3252018 C61.3947339,60.3252018 61.1628341,68.009659 61.0248684,68.0716066 C60.8869027,68.1335543 60.2587185,76.1424992 60.2587185,76.1424992 L58.7381604,85.2163535 L57.8986245,87.6411611 Z" id="Shape" fill="#FFFFF6"></path>
                        <g id="Playera" transform="translate(61.350702, 57.227820)" fill="#000000" fill-opacity="0" stroke="#000000" stroke-linecap="round" stroke-linejoin="round" stroke-width="3">
                            <path d="M1.24169125,0.855467409 C1.79061858,0.280239324 2.43641545,-0.283189211 3.14092112,0.171093482 C4.43251485,1.00591168 2.88847326,4.00594738 4.36206429,4.74636917 C6.26716504,5.70508265 6.73096461,-0.244840672 8.95015748,1.5014928 C9.83078957,2.20651594 8.76522474,6.05316939 11.0049657,5.79062939 C12.293624,5.63723523 12.6987147,2.1681674 14.4834624,2.9056393 C15.7134119,3.41596986 15.1850327,7.02073253 16.4913036,6.83488961 C17.9854427,6.61954781 17.9032504,2.95873728 19.7878031,3.33927278 C20.9238185,3.56641413 20.4247936,6.2891604 21.6899684,6.61659792 C24.2790267,7.26852309 23.3778466,0.867266959 27.0324697,3.98824806" id="Shape"></path>
                            <path d="M0.0234835224,9.73462913 C5.19572933,2.65489885 2.87673149,14.8733334 6.40513074,12.941157 C7.28576283,12.4544255 8.75348298,7.60481027 10.0979146,9.33639431 C10.8259038,10.2862581 10.6850027,14.8703835 12.3552682,14.489848 C14.1165324,14.0857134 14.1576286,11.4426141 15.6194778,10.708092 C17.1400359,9.94112127 17.0402309,14.3364538 18.3083412,14.9234815 C19.7760613,15.6019556 18.9130419,10.9470329 23.6126818,14.094563" id="Shape"></path>
                            <path d="M0,17.3571387 C0.29354403,16.8615576 0.88063209,16.0857372 1.57926688,16.4721724 C3.08514776,17.2686421 2.31899784,20.6020151 3.65755861,20.8970039 C5.23976094,21.2391908 5.76520475,16.5547693 7.56756509,17.3305897 C9.25250783,18.0562621 8.32784413,21.2568902 9.82491869,22.1595558 C10.7848077,22.7495333 12.760359,18.8881304 13.8053757,18.6196906 C15.0265189,18.3247019 15.3024503,21.8055693 16.2799519,22.2097039 C17.9414111,22.8911279 18.8308495,18.4190983 20.3660848,18.9058297 C21.4492623,19.2509666 21.7516126,20.6757623 22.840661,21.0680974" id="Shape"></path>
                        </g>
                        <path d="M67.6413508,52.7764393 C69.3497771,52.7764393 71.7509673,52.5020998 70.5298241,52.7764393 C69.9045753,52.9121342 71.4926485,53.4785126 70.902625,53.3664169 C62.3252685,51.9121223 62.7098111,62.9742008 62.4045253,65.9240884 C62.0640143,69.2102633 60.50236,86.198666 60.50236,86.198666 L62.9681299,89.6500345 L62.9681299,98.2784558 L46.2860227,93.1338518 C50.5277339,87.6736098 58.4680999,70.4433163 58.4680999,70.4433163 C58.4680999,70.4433163 58.4680999,70.3813686 49.5062007,75.095289 C40.5443014,79.8092095 32.3955192,79.1749836 25.6469419,78.4581609 C23.7183576,78.2929672 21.8778366,77.7000398 20.0519927,77.0864632 L25.1596588,65.6762979 C35.2517026,67.1866403 45.0091061,65.6379494 53.3134667,59.4815339 C58.3829721,55.3546411 61.0894481,53.0979771 67.6413508,52.7764393 Z" id="Shape" fill="#683DBC"></path>
                        <path d="M61.1099962,83.7768083 C57.1266037,83.7001112 56.6598687,88.431731 60.4319095,88.877164 L60.4319095,96.9657558 C42.1558582,99.2843675 27.8132968,109.685671 25.5970394,124.629802 C23.380782,139.573933 29.1841475,153.771742 51.8574883,156.845525 C51.8574883,156.845525 61.8379854,144.043012 59.2401207,143.494333 L59.2401207,143.494333 C42.1529227,139.854172 39.4229632,129.727208 44.474856,121.874607 C49.6500372,113.827313 62.5102012,109.420181 72.6550829,110.691583 C72.4672147,129.995647 83.1522174,140.343853 99.4380402,142.281929 C103.380336,142.750962 119.419582,139.922019 125.563459,126.78912 L126.987147,125.075235 C126.987147,125.075235 117.300194,113.169489 115.697444,116.703454 C108.379391,132.82164 87.1209327,126.954313 87.743246,104.496819 L87.5876677,98.3020549 L86.4487168,82.7502474 L61.1099962,83.7768083 Z" id="Shape" fill="#FE5171"></path>
                        <path d="M13.86702,55.0272036 C15.7280891,56.6614413 15.5695754,57.4195625 16.4061758,59.0980485 C17.6830924,61.6615008 19.5324198,64.8296801 24.7164073,65.6231999 L25.1596588,65.6851476 L20.0519927,77.0953129 C16.1038255,75.7708133 12.5754262,73.5111994 8.92373851,71.5583738 C5.59788465,69.8326895 3.47556132,69.531801 1.25343301,68.3724952 C-0.968695299,67.2131893 0.707441112,65.7647945 2.42760913,66.2869246 C4.14777714,66.8090547 6.53722555,68.139454 7.04799216,67.1718909 C7.34153619,66.6350114 3.86891032,65.2633136 2.02545381,64.018461 C0.181997299,62.7736085 1.73190978,61.7293483 3.34933738,62.6054649 C4.96676499,63.4815815 8.38948838,65.0125732 8.74467665,64.3576981 C9.09986493,63.7028231 5.13702053,61.6408516 3.30824122,60.3311015 C1.47946191,59.0213514 2.78866829,58.1776836 4.0567785,58.9033559 C5.3248887,59.6290283 9.63411507,61.9358404 9.78088708,61.263266 C9.89243381,60.738186 7.75249783,59.4490851 5.63310994,57.6526036 C3.51372204,55.856122 4.646802,55.0478528 6.8395759,56.5257465 C9.0323498,58.0036402 13.5910886,61.3783116 14.307336,60.7853842 C15.0235835,60.1924568 13.1771915,57.7912483 12.5460718,56.5109971 C11.7153422,54.8679097 12.7574235,54.1953353 13.86702,55.0272036 Z" id="Shape" fill="#FFCF00"></path>
                        <path d="M81.5788214,102.425998 C75.4731056,128.208016 105.675851,145.15217 119.654418,123.600291" id="Shape" stroke="#FFFFFF" stroke-width="3" fill-opacity="0" fill="#000000" stroke-linecap="round" stroke-dasharray="9"></path>
                        <path d="M101.363689,101.452535 C99.4527174,103.865543 85.9438211,107.35231 76.9995345,103.316864 C76.9995345,103.316864 84.0005596,69.3253089 85.1395105,62.6084148 C85.9085958,58.0537883 87.0798365,53.9209957 81.66982,53.5286607 C80.8713803,53.4696629 81.3351798,52.9770317 80.956508,52.6643436 C80.956508,52.6643436 90.4115613,54.8944587 91.4918033,55.1245499 C92.5720453,55.3546411 90.7051053,68.8651264 90.7051053,68.8651264 L101.363689,101.452535 Z" id="Shape-4" fill="#683DBC"></path>
                        <path d="M81.4320494,52.7734895 C93.7374151,55.3221924 107.44005,56.6555416 111.749277,71.0627927 C115.541866,84.1543939 107.175861,96.5586713 94.1659894,99.272568 L93.4115812,87.7414573 C94.1774102,87.5478184 94.916054,87.2584385 95.610226,86.8800901 C96.8519173,86.0806705 102.168,83.0776849 100.665054,76.697078 C99.1298189,70.1689767 91.1483568,68.5907869 87.6786663,70.6439086 L87.8371801,56.6466919 L85.6238581,54.2779321 L81.4320494,52.7734895 Z" id="Shape" fill="#683DBC"></path>
                        <path d="M116.765944,115.635595 C120.288473,109.765318 121.186717,108.732858 120.752272,105.083847 C120.317827,101.434836 122.80708,96.0778397 127.741556,96.9510064 C132.676031,97.8241731 134.296394,102.355201 136.30717,103.774096 C139.227933,105.839018 143.531289,106.284451 147.400199,109.606024 C151.26911,112.927598 151.427623,114.44679 151.151692,115.479251 C150.585152,117.58547 147.00685,116.069228 143.848316,114.803726 C140.689783,113.538224 133.031219,110.51754 130.30713,115.794888 C128.134905,120.001428 128.56935,120.278718 128.56935,120.278718 L116.765944,115.635595 Z" id="Shape" fill="#FFCF00"></path>
                        <polygon id="Shape" fill="#DF4F6B" points="115.503705 109.18714 110.47236 119.715289 130.242551 130.066445 134.713226 121.069288"></polygon>
                        <path d="M58.4680999,156.845525 C62.9681299,158.167074 65.5513173,157.981231 66.475981,163.072737 C67.4006447,168.164243 67.2538727,171.438619 67.289098,173.556638 C67.3243233,175.674657 70.2480218,175.8605 71.7274837,174.338358 C73.2069457,172.816216 74.909501,169.02856 74.6864076,166.568354 C74.4633141,164.108148 74.075836,161.866233 75.5376852,159.355879 C76.9995345,156.845525 79.089568,154.636059 77.4985594,151.364633 C75.9075507,148.093208 72.9574332,147.385235 69.8664146,148.612388 C66.775396,149.839541 62.5278138,146.680212 62.5278138,146.680212 L58.4680999,156.845525 Z" id="Shape" fill="#FFCF00"></path>
                        <path d="M84.7021299,73.6940924 C84.7021299,73.6940924 83.9389154,71.894661 86.0612387,70.8120522 C88.1835621,69.7294435 87.0915783,68.0863561 87.8665345,67.7235199 C88.6414907,67.3606837 90.1972741,70.3312205 89.4663495,73.5672473 L84.7021299,73.6940924 Z" id="Shape" fill="#FFFFFF"></path>
                        <polygon id="Shape" fill="#DF4F6B" points="57.4113414 140.414651 46.6558881 158.998943 57.108991 162.462111 65.7802817 144.423548"></polygon>
                        <path d="M81.1473117,45.5787136 C81.1854724,48.7970409 81.5612087,52.443102 82.9848973,55.7705753 C82.9848973,55.7705753 73.0631091,61.4107604 68.8947838,53.9121461 C71.5953889,50.6348209 73.656068,45.9297502 75.009306,42.2394408 C72.2705402,43.5285417 68.222568,44.2689635 65.7802817,40.4282098 C64.5855575,38.5491314 63.4847674,33.7319649 63.0033552,31.8145379 C62.521943,29.897111 58.708806,29.7938649 58.4769062,28.5490124 C58.2450064,27.3041598 62.5512974,28.0150827 64.6765561,26.484091 C66.8018149,24.9530993 66.3849824,24.6787598 66.9515224,21.236241 C67.5180623,17.7937221 70.0660245,14.5783446 70.0660245,14.5783446 L75.1003046,8.59007274 L81.7578832,9.33049453 L88.6180072,15.6049055 L93.3147117,22.233303 L92.8421058,28.9501971 L88.356753,35.6729909 L84.0269786,40.3338134 L81.1473117,45.5787136 Z" id="Shape" fill="#FFCF00"></path>
                        <path d="M76.3478668,0.982312576 C70.2656345,2.834842 66.8076858,8.84081319 68.4750159,12.8172617 C70.142346,16.7937102 76.4476717,16.9264551 79.7177522,15.4721605 C83.7804016,13.6697792 88.2305291,16.1388351 84.6287439,18.793734 C82.2803916,20.5341677 80.5191274,22.8468796 81.7314643,25.5991247 C82.9438011,28.3513699 88.1894329,28.6581582 85.1659294,33.3838782 C82.1424259,38.1095981 79.6502371,44.8382918 81.1473117,45.5787136 C82.7412557,46.3604338 89.3665445,36.9296431 93.3029699,31.5519979 C97.2393954,26.1743528 102.696379,16.7081635 96.9752058,14.2096086 C91.2540326,11.7110538 86.2050753,13.3541412 85.8205326,9.90572262 C85.4359899,6.45730399 86.8332595,-2.2153656 76.3478668,0.982312576 Z" id="Shape" fill="#683DBC"></path>
                        <path d="M62.9681299,31.5106995 C62.9035502,30.9561206 67.6237382,29.8115643 69.7020299,31.6965424 C71.7803217,33.5815206 74.3987344,36.799848 77.1991445,35.8971824 C79.9995545,34.9945168 84.056333,30.1920998 84.9633841,28.9236481 C85.8704351,27.6551964 86.9007747,30.1449016 86.2403006,31.655244 C85.5798265,33.1655865 83.9946888,37.2275817 82.4506472,38.5491314 C80.9066056,39.870681 77.269595,41.6435635 74.9740807,42.5875275 C72.6785664,43.5314916 70.0807017,44.4931549 68.0552479,43.5285417 C63.7695051,41.4872194 63.1413209,33.0387413 62.9681299,31.5106995 Z" id="Shape" fill="#683DBC"></path>
                        <path d="M83.7334346,29.2363362 C85.4301191,24.7053088 87.7637941,23.8173926 89.6659594,25.2185892 C91.8939586,26.8587267 87.549507,35.6877404 83.6982093,30.106553 L83.7334346,29.2363362 Z" id="Shape" fill="#FFCF00"></path>
                        <path d="M81.6052403,83.4346213 C83.5396955,83.9833004 84.9751258,85.7738822 86.4692649,87.0423339 C87.0769011,87.5615141 87.8489219,88.3284849 88.6855224,88.4936786 C90.2923404,88.5062271 91.8905001,88.2561574 93.4174521,87.7532568 L94.1718603,99.2843675 L93.9517023,99.3286158 C88.1982393,100.375826 82.9819619,99.9982403 78.6345748,99.2873174 C75.7783914,98.8182853 73.8321944,98.8890826 73.9173222,97.248945 C74.00245,95.6088075 79.9173622,97.328592 80.3752909,96.3256302 C80.8332196,95.3226684 73.7118414,96.0306415 73.7118414,93.7887269 C73.7118414,91.5468123 80.9741207,94.257759 81.2823419,93.1987494 C81.5905631,92.1397397 73.1834621,91.9420972 73.8586134,89.953873 C74.5337647,87.9656487 82.0132666,90.9745341 82.1923284,90.3963561 C82.3713903,89.8181781 74.1873827,87.7827557 75.0856274,85.8122308 C76.0132266,83.7738584 83.4751158,89.3963442 84.449682,88.5939748 C85.4242482,87.7916053 80.1111012,84.8122189 81.2206977,83.5791658 C81.3880178,83.443471 81.2647293,83.5172182 81.6052403,83.4346213 Z" id="Shape" fill="#FFCF00"></path>
                        <path d="M70.8644643,25.4191816 C70.5151469,25.4191816 70.2304092,24.7318578 70.2304092,23.8822901 C70.2304092,23.0327225 70.5239532,22.3453987 70.8644643,22.3453987 C71.2049754,22.3453987 71.495584,23.0327225 71.495584,23.8822901 C71.495584,24.7318578 71.2137817,25.4191816 70.8644643,25.4191816 Z" id="Shape" fill="#000000"></path>
                        <path d="M63.7841823,36.4812602 C64.829199,36.3249161 66.4730456,35.9178316 67.3067106,35.3367038" id="Shape" stroke="#FFCF00" stroke-width="1.5" fill-opacity="0" fill="#000000" stroke-linecap="round" stroke-linejoin="round"></path>
                        <g id="Listón" transform="translate(66.340951, 87.906651)" fill="#000000" fill-opacity="0" stroke="#FFFFFF" stroke-linecap="round" stroke-linejoin="round" stroke-width="3">
                            <path d="M2.51860778,2.84959144 C2.82976445,2.97053683 1.05088763,-0.474931906 0.434445164,0.162243819 C-0.78376256,1.42479572 1.3326899,3.61361233 2.24854727,3.30682402 C2.39825473,3.25372604 4.74367153,-1.74928336 5.21627741,0.687323815 C5.77401107,3.55461458 3.42565883,3.66376042 2.38357752,3.44251885 C1.43836575,4.29798626 1.11253187,6.92043635 1.00098514,7.57236151" id="Shape"></path>
                            <path d="M2.64189627,3.30682402 C3.58710805,4.38943277 4.10961642,6.96468466 4.22703403,7.87325005" id="Shape"></path>
                        </g>
                        <path d="M88.8205526,27.0475196 C87.1708352,26.1389542 86.0524324,27.8882375 85.6532125,29.345482" id="Shape" stroke="#FE5171" stroke-width="1.5" fill-opacity="0" fill="#000000" stroke-linecap="round" stroke-linejoin="round"></path>
                        <path d="M86.3459764,27.9619847 C87.2999945,28.0652308 87.6727955,28.5696616 87.7637941,29.2746847" id="Shape" stroke="#FE5171" stroke-width="1.5" fill-opacity="0" fill="#000000" stroke-linecap="round" stroke-linejoin="round"></path>
                        <path d="M13.5265089,67.3134855 C14.407141,67.1364923 15.8484422,66.776606 17.2134219,67.5612761" id="Shape" stroke="#FE5171" stroke-width="1.5" fill-opacity="0" fill="#000000" stroke-linecap="round" stroke-linejoin="round"></path>
                    </g>
                </g>
            </g>
        </g>
    </g>
</svg>