<?xml version="1.0" encoding="UTF-8"?>
<svg width="684px" height="536px" viewBox="0 0 684 536" version="1.1" xmlns="http://www.w3.org/2000/svg" xmlns:xlink="http://www.w3.org/1999/xlink">
    <!-- Generator: sketchtool 54.1 (76490) - https://sketchapp.com -->
    <title>183F449D-C140-4BD1-BBCD-35D6FFE97438</title>
    <desc>Created with sketchtool.</desc>
    <defs>
        <filter x="-103.5%" y="-66.5%" width="307.0%" height="232.9%" filterUnits="objectBoundingBox" id="filter-1">
            <feOffset dx="0" dy="30" in="SourceAlpha" result="shadowOffsetOuter1"></feOffset>
            <feGaussianBlur stdDeviation="27.5" in="shadowOffsetOuter1" result="shadowBlurOuter1"></feGaussianBlur>
            <feColorMatrix values="0 0 0 0 0   0 0 0 0 0   0 0 0 0 0  0 0 0 0.3 0" type="matrix" in="shadowBlurOuter1" result="shadowMatrixOuter1"></feColorMatrix>
            <feMerge>
                <feMergeNode in="shadowMatrixOuter1"></feMergeNode>
                <feMergeNode in="SourceGraphic"></feMergeNode>
            </feMerge>
        </filter>
        <polygon id="path-2" points="0 246 158 246 158 0 0 0"></polygon>
    </defs>
    <g id="Page-1" stroke="none" stroke-width="1" fill="none" fill-rule="evenodd">
        <g id="Desktop-HD-Copy" transform="translate(-689.000000, -147.000000)">
            <g id="Ilustración" transform="translate(672.000000, 170.000000)">
                <g id="Page-1" filter="url(#filter-1)" transform="translate(304.000000, 0.000000)">
                    <path d="M109.327385,130.370924 C107.933777,131.452104 106.834059,132.306165 106.011641,133.032472 C100.569935,137.83982 99.8470601,144.561117 99.9276428,148.294382 L97.0527343,148.294382 L92.9524938,93.9538433 L116.437629,93.4641184 C117.558677,93.442826 118.50908,92.6313494 118.708166,91.5312428 L121.794012,74.466577 C121.817713,74.3293594 121.827193,74.1874101 121.827193,74.0478267 C121.827193,68.8004361 118.682095,66.451176 115.565439,66.451176 L110.699662,66.451176 L110.699662,52.4833697 C110.699662,47.8818481 108.0191,43.7321984 103.876198,41.9105163 C97.9320344,39.2962843 89.8453173,37.9714246 79.8364644,37.9714246 C69.8323516,37.9714246 61.7527448,39.2962843 55.8204315,41.9057847 C51.6798996,43.7274667 49.006448,47.8771165 49.006448,52.4762722 L49.006448,66.6144176 L44.9275383,66.5860277 C41.0216444,66.5860277 37.8433655,69.8721529 37.8433655,73.9129749 C37.8433655,73.9863154 37.8481057,74.0643874 37.8528458,74.1400937 L39.5901154,91.8837501 C39.7086194,93.0879529 40.7253843,94.0082572 41.9364958,94.0082572 L67.0380259,94.0082572 L62.9828169,148.294382 L60.0747273,148.294382 C60.15531,144.561117 59.4324353,137.83982 53.9930989,133.032472 C53.1683106,132.306165 52.0685929,131.452104 50.6749852,130.370924 C40.512077,122.49274 16.7164616,104.046435 16.7164616,67.7145243 C16.7164616,32.9724451 45.0318218,4.70798349 79.8364644,4.70798349 C79.8933463,4.70798349 79.9454881,4.69378856 80,4.68905692 C80.0568819,4.69378856 80.1090237,4.70798349 80.1659057,4.70798349 C114.970548,4.70798349 143.285908,32.9724451 143.285908,67.7145243 C143.285908,104.046435 119.490293,122.49274 109.327385,130.370924 L109.327385,130.370924 Z M68.7184134,134.809204 C71.0008016,135.156979 75.2242864,135.667996 80.4147642,135.667996 C83.735248,135.667996 87.4586456,135.43378 91.3076575,134.839959 L92.3244223,148.294382 L80.1659057,148.294382 C80.1090237,148.294382 80.0568819,148.308577 80,148.310943 C79.9454881,148.308577 79.8933463,148.294382 79.8364644,148.294382 L67.7111289,148.294382 L68.7184134,134.809204 Z M104.21038,76.5484993 C104.136907,76.5059146 104.082395,76.4775247 104.077655,76.0635061 L103.864348,71.745883 L103.864348,71.3815466 C103.864348,71.3129378 103.861978,71.2348657 103.861978,71.1591594 C103.91886,71.1591594 103.975742,71.1591594 104.037364,71.1591594 L105.96898,71.1591594 L105.96424,76.5768892 C105.554216,76.7283017 104.660695,76.804008 104.21038,76.5484993 L104.21038,76.5484993 Z M54.2964693,76.8016422 C54.02628,76.8016422 53.7229096,76.6904486 53.7229096,76.5414019 L53.7229096,71.3531567 L55.4696595,71.3673517 L55.3724861,76.5958157 C55.1402182,76.6951802 54.7159737,76.8016422 54.2964693,76.8016422 L54.2964693,76.8016422 Z M54.2964693,81.5072598 C57.1737479,81.5072598 60.0842076,79.9126966 60.0842076,76.9128357 L60.1884912,71.2348657 C60.271444,70.0850768 59.8827507,68.9400195 59.1101042,68.0788607 C58.3113868,67.1893121 57.1666376,66.6735631 55.9650064,66.661734 L53.7229096,66.6475391 L53.7229096,52.4762722 C53.7229096,49.7413833 55.2919034,47.2832954 57.7236067,46.2139444 C61.3877523,44.6004546 68.1969956,42.6794081 79.8364644,42.6794081 C91.4830435,42.6794081 98.3065073,44.6028204 101.975393,46.2186761 C104.411836,47.2880271 105.9832,49.746115 105.9832,52.4833697 L105.97135,66.451176 L104.037364,66.451176 C102.828622,66.451176 101.30466,66.5883936 100.242864,67.6530129 C99.1336656,68.7649487 99.1431459,70.1678805 99.1502562,71.4052048 L99.3659336,76.1794313 C99.3659336,78.5665445 100.72399,80.4142506 102.999268,81.121631 C105.177373,81.7982558 108.336691,81.3227258 109.661566,79.5459943 C110.34178,78.6895672 110.699662,77.6415086 110.699662,76.5106462 L110.699662,71.1591594 L115.565439,71.1591594 C116.833432,71.1591594 117.084661,72.7608202 117.110732,73.8514636 L114.411209,88.7987197 L90.3643651,89.3026395 C89.717333,89.3144686 89.1034819,89.5936355 88.667387,90.0715313 C88.2336621,90.5494271 88.0156147,91.1858329 88.0630163,91.831702 L90.9545154,130.141439 C81.3011746,131.691052 72.2853857,130.598042 69.0715555,130.094123 L71.9298735,91.8293362 C71.9772751,91.1763696 71.7521174,90.5328664 71.3065421,90.0526047 C70.8609669,89.5723431 70.2328953,89.3002737 69.5787529,89.3002737 L44.074309,89.3002737 L42.5598271,73.8136104 C42.6072287,72.4154103 43.6500645,71.2916454 44.9085776,71.2916454 L49.006448,71.3224011 L49.006448,76.5414019 C49.006448,79.325973 51.3314977,81.5072598 54.2964693,81.5072598 L54.2964693,81.5072598 Z M80.1659057,0 C80.1090237,0 80.0568819,0.0118291042 80,0.0165607459 C79.9454881,0.0118291042 79.8933463,0 79.8364644,0 C42.4318427,0 12,30.3771397 12,67.7145243 C12,106.350745 37.0754592,125.788329 47.781116,134.087628 C49.0562197,135.076541 50.1583075,135.930603 50.8669618,136.555179 C56.6072985,141.629865 55.2113206,150.153918 55.1971001,150.234355 C55.0738559,150.920443 55.2610923,151.623092 55.7090377,152.157768 C56.156983,152.692443 56.8206058,153 57.5174096,153 L79.8364644,153 C79.8933463,153 79.9454881,152.988171 80,152.985805 C80.0568819,152.988171 80.1090237,153 80.1659057,153 L102.48496,153 C103.179394,153 103.840647,152.692443 104.286222,152.160134 C104.736538,151.627824 104.926144,150.925175 104.80764,150.239087 C104.79342,150.153918 103.395072,141.629865 109.135408,136.557545 C109.846433,135.930603 110.94852,135.076541 112.221254,134.087628 C122.926911,125.788329 148,106.350745 148,67.7145243 C148,30.3771397 117.572897,0 80.1659057,0 L80.1659057,0 Z" id="Fill-1" fill="#FFFFFF"></path>
                    <path d="M102.690432,163 L57.3095682,163 C56.0328504,163 55,161.881409 55,160.501295 C55,159.118591 56.0328504,158 57.3095682,158 L102.690432,158 C103.964759,158 105,159.118591 105,160.501295 C105,161.881409 103.964759,163 102.690432,163" id="Fill-4" fill="#FFFFFF"></path>
                    <path d="M102.690432,173 L57.3095682,173 C56.0328504,173 55,171.881409 55,170.501295 C55,169.118591 56.0328504,168 57.3095682,168 L102.690432,168 C103.964759,168 105,169.118591 105,170.501295 C105,171.881409 103.964759,173 102.690432,173" id="Fill-6" fill="#FFFFFF"></path>
                    <polygon id="Fill-8" fill="#FFFFFF" points="0 190.88409 0 185 17 185 17 190.88409 11.9006891 190.88409 11.9006891 217 5.0993109 217 5.0993109 190.88409"></polygon>
                    <polygon id="Fill-11" fill="#FFFFFF" points="28.1616882 204.436673 28.1616882 217 21 217 21 185 28.1616882 185 28.1616882 198.402909 33.8383118 198.402909 33.8383118 185 41 185 41 217 33.8383118 217 33.8383118 204.436673"></polygon>
                    <mask id="mask-3" fill="white">
                        <use xlink:href="#path-2"></use>
                    </mask>
                    <g id="Clip-14"></g>
                    <polygon id="Fill-13" fill="#FFFFFF" mask="url(#mask-3)" points="46 217 53 217 53 185 46 185"></polygon>
                    <path d="M77,218 L69.852059,218 L69.852059,191.030011 C69.852059,190.761641 69.7554652,190.52652 69.5671073,190.324649 C69.3811642,190.125153 69.1517539,190.025405 68.8764616,190.025405 L66.1235384,190.025405 C65.8482461,190.025405 65.6212506,190.125153 65.4328927,190.324649 C65.24212,190.52652 65.1503559,190.761641 65.1503559,191.030011 L65.1503559,218 L58,218 L58,191.630874 C58,187.211083 60.1105745,185 64.3341383,185 L70.6658617,185 C74.8870107,185 77,187.211083 77,191.630874 L77,218 Z" id="Fill-15" fill="#FFFFFF" mask="url(#mask-3)"></path>
                    <polygon id="Fill-16" fill="#FFFFFF" mask="url(#mask-3)" points="100.960187 185 95.5128806 199.689176 102 217 94.9180328 217 90.1615925 204.338449 87.9344262 204.338449 87.9344262 217 81 217 81 185 87.9344262 185 87.9344262 198.402909 89.618267 198.402909 94.6206089 185"></polygon>
                    <polygon id="Fill-17" fill="#FFFFFF" mask="url(#mask-3)" points="105 217 112 217 112 185 105 185"></polygon>
                    <path d="M136,218 L128.85115,218 L128.85115,191.030011 C128.85115,190.761641 128.754544,190.52652 128.568578,190.324649 C128.382611,190.125153 128.150756,190.025405 127.880259,190.025405 L125.119741,190.025405 C124.849244,190.025405 124.617389,190.125153 124.431422,190.324649 C124.245456,190.52652 124.15368,190.761641 124.15368,191.030011 L124.15368,218 L117,218 L117,191.630874 C117,187.211083 119.110843,185 123.334943,185 L129.665057,185 C133.891572,185 136,187.211083 136,191.630874 L136,218 Z" id="Fill-18" fill="#FFFFFF" mask="url(#mask-3)"></path>
                    <path d="M149.602099,204.790642 L149.602099,199.695002 L159,199.695002 L159,211.470188 C159,215.824176 156.900367,218 152.7011,218 L146.301302,218 C142.102036,218 140,215.824176 140,211.470188 L140,191.532152 C140,187.175824 142.102036,185 146.301302,185 L152.7011,185 C156.900367,185 159,187.175824 159,191.532152 L159,194.547891 L152.244658,194.547891 L152.244658,190.689897 C152.244658,190.425523 152.150967,190.196242 151.963586,189.997377 C151.778607,189.798511 151.552788,189.700248 151.27652,189.700248 L148.079024,189.700248 C147.807561,189.700248 147.57934,189.798511 147.394361,189.997377 C147.204577,190.196242 147.110886,190.425523 147.110886,190.689897 L147.110886,212.260971 C147.110886,212.525346 147.204577,212.756966 147.394361,212.955831 C147.57934,213.152357 147.807561,213.25062 148.079024,213.25062 L151.27652,213.25062 C151.552788,213.25062 151.778607,213.152357 151.963586,212.955831 C152.150967,212.756966 152.244658,212.525346 152.244658,212.260971 L152.244658,204.790642 L149.602099,204.790642 Z" id="Fill-19" fill="#FFFFFF" mask="url(#mask-3)"></path>
                    <path d="M36.2350025,240.192808 C36.3581596,240.192808 36.4813167,240.21445 36.602059,240.257733 C36.7252161,240.303421 36.8411286,240.380369 36.9522115,240.488578 L39,242.570991 C38.1040925,243.703574 36.9836045,244.557219 35.6312913,245.136736 C34.281393,245.711444 32.6875953,246 30.8450686,246 C29.1522623,246 27.6381546,245.721062 26.2979156,245.163187 C24.9625064,244.607717 23.8226995,243.840638 22.8929842,242.859547 C21.9608541,241.878457 21.24606,240.717018 20.7461871,239.372828 C20.2463142,238.028637 20,236.566619 20,234.991584 C20,233.385288 20.2680478,231.911247 20.8089731,230.567057 C21.3450686,229.222866 22.1057448,228.061427 23.083757,227.087551 C24.0617692,226.113674 25.2305541,225.353809 26.5973564,224.812766 C27.9617438,224.271724 29.4613625,224 31.103457,224 C31.9365785,224 32.723818,224.069734 33.4651754,224.214012 C34.2017031,224.355886 34.8923488,224.553066 35.5322827,224.805553 C36.1746314,225.055634 36.7638536,225.358618 37.3047789,225.714504 C37.8432893,226.067986 38.3238434,226.452727 38.7416116,226.866324 L36.9980935,229.124276 C36.8870107,229.266149 36.7541942,229.39119 36.602059,229.501803 C36.4475089,229.617226 36.2350025,229.672533 35.9621251,229.672533 C35.7785968,229.672533 35.604728,229.634058 35.4429334,229.554705 C35.2787239,229.475352 35.1048551,229.379167 34.9213269,229.266149 C34.7402135,229.153131 34.5373665,229.030495 34.3176157,228.89824 C34.0978648,228.765985 33.8418912,228.640944 33.5376207,228.527927 C33.23818,228.414909 32.8880275,228.318723 32.4847483,228.23937 C32.0814692,228.162422 31.6105745,228.121543 31.0744789,228.121543 C30.2172089,228.121543 29.437214,228.273035 28.7272496,228.580829 C28.0197001,228.883812 27.4111591,229.331074 26.8943823,229.917805 C26.3824352,230.504536 25.9815709,231.223522 25.7014489,232.074762 C25.4213269,232.926003 25.2836807,233.897475 25.2836807,234.991584 C25.2836807,236.095311 25.4382308,237.073997 25.7497458,237.932452 C26.0612608,238.790906 26.4814438,239.512296 27.0175394,240.096623 C27.5512201,240.683353 28.176665,241.128211 28.8890442,241.433599 C29.6014235,241.738988 30.3645145,241.892884 31.1807321,241.892884 C31.6467972,241.892884 32.0742247,241.868838 32.4630147,241.825555 C32.8493899,241.782271 33.2092018,241.707728 33.5472801,241.601924 C33.8829436,241.500929 34.1992883,241.36146 34.4963142,241.190731 C34.7885104,241.017598 35.090366,240.796371 35.3946365,240.534266 C35.5177936,240.433271 35.6481952,240.353918 35.7930859,240.288993 C35.9355618,240.226473 36.0852822,240.192808 36.2350025,240.192808" id="Fill-20" fill="#FFFFFF" mask="url(#mask-3)"></path>
                    <path d="M59.7447786,234.992785 C59.7447786,233.929821 59.6030702,232.970267 59.3172515,232.118933 C59.0362364,231.265195 58.6303258,230.543725 58.0971178,229.952121 C57.5663116,229.362921 56.9154135,228.908395 56.1444236,228.593354 C55.3734336,228.278312 54.4991646,228.121994 53.514411,228.121994 C52.5248538,228.121994 51.6385756,228.278312 50.8651838,228.593354 C50.0893901,228.908395 49.4384921,229.362921 48.905284,229.952121 C48.3744779,230.543725 47.9637636,231.265195 47.6827485,232.118933 C47.3969298,232.970267 47.2552214,233.929821 47.2552214,234.992785 C47.2552214,236.065369 47.3969298,237.029733 47.6827485,237.881067 C47.9637636,238.734805 48.3744779,239.45387 48.905284,240.045474 C49.4384921,240.637079 50.0893901,241.086795 50.8651838,241.397027 C51.6385756,241.707258 52.5248538,241.863577 53.514411,241.863577 C54.4991646,241.863577 55.3734336,241.707258 56.1444236,241.397027 C56.9154135,241.086795 57.5663116,240.637079 58.0971178,240.045474 C58.6303258,239.45387 59.0362364,238.734805 59.3172515,237.881067 C59.6030702,237.029733 59.7447786,236.065369 59.7447786,234.992785 M65,234.992785 C65,236.548754 64.7237886,237.998907 64.1737678,239.338435 C63.621345,240.675557 62.8431495,241.841933 61.8415831,242.830345 C60.8376149,243.821163 59.6318922,244.59554 58.2196115,245.158286 C56.804929,245.718627 55.2389307,246 53.514411,246 C51.7922932,246 50.2238931,245.718627 48.8068087,245.158286 C47.3873225,244.59554 46.1767962,243.821163 45.1656224,242.830345 C44.1592523,241.841933 43.3810568,240.675557 42.8286341,239.338435 C42.2762114,237.998907 42,236.548754 42,234.992785 C42,233.436817 42.2762114,231.986664 42.8286341,230.647136 C43.3810568,229.307608 44.1592523,228.146043 45.1656224,227.16244 C46.1767962,226.176432 47.3873225,225.402055 48.8068087,224.841714 C50.2238931,224.278968 51.7922932,224 53.514411,224 C55.2389307,224 56.804929,224.281373 58.2196115,224.848929 C59.6318922,225.41408 60.8376149,226.190861 61.8415831,227.176869 C62.8431495,228.160472 63.621345,229.322038 64.1737678,230.661565 C64.7237886,232.001093 65,233.446436 65,234.992785" id="Fill-21" fill="#FFFFFF" mask="url(#mask-3)"></path>
                    <path d="M79.5011996,241.965197 C80.1873974,241.965197 80.8016164,241.858469 81.3462558,241.645012 C81.8860967,241.431555 82.3443617,241.12529 82.7186513,240.726218 C83.0905417,240.324826 83.3784569,239.837587 83.5727996,239.264501 C83.7719409,238.689095 83.8703119,238.034803 83.8703119,237.303944 L83.8703119,225 L89,225 L89,237.303944 C89,238.577726 88.7816644,239.74478 88.3401945,240.809745 C87.9011239,241.87471 87.2701099,242.791183 86.4495517,243.561485 C85.6313929,244.331787 84.633287,244.930394 83.4600328,245.357309 C82.2867786,245.784223 80.9671676,246 79.5011996,246 C78.0232353,246 76.6964263,245.784223 75.5207728,245.357309 C74.3499179,244.930394 73.3542114,244.331787 72.5360525,243.561485 C71.7154944,242.791183 71.0892789,241.87471 70.6526077,240.809745 C70.2183356,239.74478 70,238.577726 70,237.303944 L70,225 L75.1272888,225 L75.1272888,237.290023 C75.1272888,238.020882 75.2280591,238.675174 75.4248011,239.24826 C75.6215431,239.825986 75.9094583,240.313225 76.2837479,240.716937 C76.6556383,241.12297 77.1139033,241.431555 77.6561435,241.645012 C78.1983836,241.858469 78.8126026,241.965197 79.5011996,241.965197" id="Fill-22" fill="#FFFFFF" mask="url(#mask-3)"></path>
                    <path d="M109.233642,240.192808 C109.356753,240.192808 109.477449,240.21445 109.598145,240.257733 C109.721255,240.303421 109.839538,240.380369 109.950578,240.488578 L112,242.570991 C111.10202,243.703574 109.979545,244.557219 108.630161,245.136736 C107.280778,245.711444 105.685173,246 103.843349,246 C102.151188,246 100.637657,245.721062 99.302757,245.163187 C97.9606149,244.607717 96.8260704,243.840638 95.8991234,242.859547 C94.9625206,241.878457 94.247999,240.717018 93.7483166,239.372828 C93.2534621,238.028637 93,236.566619 93,234.991584 C93,233.385288 93.2727735,231.911247 93.8086647,230.567057 C94.3517977,229.222866 95.1073561,228.061427 96.0874095,227.087551 C97.062635,226.113674 98.2358023,225.353809 99.5972557,224.812766 C100.963537,224.271724 102.462584,224 104.104053,224 C104.939271,224 105.723796,224.069734 106.462457,224.214012 C107.198704,224.355886 107.886673,224.553066 108.533604,224.805553 C109.173294,225.055634 109.762292,225.358618 110.300597,225.714504 C110.841316,226.067986 111.316859,226.452727 111.736882,226.866324 L109.996443,229.124276 C109.885402,229.266149 109.752636,229.39119 109.598145,229.501803 C109.448482,229.617226 109.233642,229.672533 108.958455,229.672533 C108.774997,229.672533 108.603608,229.634058 108.439461,229.554705 C108.275314,229.475352 108.103926,229.379167 107.920468,229.266149 C107.737009,229.153131 107.536654,229.030495 107.316986,228.89824 C107.099733,228.765985 106.839029,228.640944 106.539703,228.527927 C106.240376,228.414909 105.887943,228.318723 105.484818,228.23937 C105.081692,228.162422 104.613391,228.121543 104.070258,228.121543 C103.218143,228.121543 102.436031,228.273035 101.731165,228.580829 C101.021471,228.883812 100.410748,229.331074 99.8989963,229.917805 C99.3824165,230.504536 98.9865328,231.223522 98.7065176,232.074762 C98.4240884,232.926003 98.2840808,233.897475 98.2840808,234.991584 C98.2840808,236.095311 98.4409859,237.073997 98.7499682,237.932452 C99.0589506,238.790906 99.4862152,239.512296 100.019693,240.096623 C100.550756,240.683353 101.175962,241.128211 101.88807,241.433599 C102.600178,241.738988 103.365392,241.892884 104.176471,241.892884 C104.6496,241.892884 105.072037,241.868838 105.463092,241.825555 C105.84932,241.782271 106.208995,241.707728 106.546944,241.601924 C106.88248,241.500929 107.19629,241.36146 107.490789,241.190731 C107.787702,241.017598 108.087028,240.796371 108.393597,240.534266 C108.516707,240.433271 108.649473,240.353918 108.78948,240.288993 C108.931902,240.226473 109.081565,240.192808 109.233642,240.192808" id="Fill-23" fill="#FFFFFF" mask="url(#mask-3)"></path>
                    <polygon id="Fill-24" fill="#FFFFFF" mask="url(#mask-3)" points="136 225 136 246 130.922943 246 130.922943 237.120979 122.077057 237.120979 122.077057 246 117 246 117 225 122.077057 225 122.077057 233.77815 130.922943 233.77815 130.922943 225"></polygon>
                </g>
                <g id="floating-people" transform="translate(0.000000, 17.000000)">
                    <g id="Layer_5" transform="translate(451.000000, 76.000000)"></g>
                    <g id="Layer_1-3" fill-rule="nonzero">
                        <path d="M136.327017,315.332956 C138.867594,315.456349 127.457736,295.629111 127.457736,295.629111 C127.457736,295.629111 102.383337,291.011632 94.9695283,292.946947 C84.7552358,295.629111 76.8151179,289.167237 71.1361792,299.441292 C67.0101769,306.922779 83.2672759,314.196446 83.2672759,314.196446 C86.3016745,310.533635 106.093491,310.598578 112.974493,324.795218 C113.000483,324.814701 133.779941,315.203069 136.327017,315.332956 Z" id="Shape" fill="#FFB900"></path>
                        <path d="M181.933962,104.409596 C194.279481,88.8231664 172.083538,76.2566074 165.384469,86.0760582 C158.542453,72.8275929 120.102406,74.444685 113.058962,111.241648 L95.8467099,148.908853 C83.3647406,172.418384 53.6965094,171.450727 50.9869929,204.6758 C50.1358019,233.744491 66.2369575,242.959968 73.8651887,244.291309 C62.0589741,272.437803 89.355566,299.564685 108.302689,302.876801 C158.243561,311.598708 176.086085,260.611599 176.086085,260.611599 L181.933962,104.409596 Z" id="Shape" fill="#442CB3"></path>
                        <path d="M165.754835,86.8229079 C167.327264,82.6340549 169.497476,79.9453958 173.81191,80.1597092" id="Shape" stroke="#502CC5" stroke-width="1.5" fill-opacity="0" fill="#000000" stroke-linecap="round" stroke-linejoin="round"></path>
                        <path d="M148.198208,217.365751 C148.198208,217.365751 153.396321,228.523037 156.131828,231.309111 L166.651509,199.577738 L158.243561,199.01273 L148.198208,217.365751 Z" id="Shape" fill="#FFCF00"></path>
                        <path d="M109.361804,98.0646204 C103.871297,100.831212 112.077818,111.053312 108.621073,112.183328 C105.164328,113.313344 92.039092,85.9396769 86.0677594,88.8881099 C80.0964269,91.8365428 98.2443396,108.163328 95.4958373,109.994733 C94.0793514,110.936414 81.9677476,90.7584814 77.4323939,94.6421002 C72.8970401,98.5257189 92.3769693,113.293861 90.6031132,115.742229 C89.4920165,117.274895 76.6006958,98.8569305 72.7216038,102.331405 C69.2713561,105.41622 88.4329009,121.061099 87.289316,122.256058 C84.9176769,124.736898 75.3076651,109.150468 71.7469575,112.748336 C68.18625,116.346204 81.8767807,126.386462 85.2750472,129.575186 C88.6733137,132.76391 92.8967807,134.984976 92.7343396,148.369822 C92.5718986,161.754669 89.2061203,195.083651 87.5752123,208.507464 C83.3712382,243.070372 118.958821,263.254798 150.050035,218.528239 L158.185083,209.117932 C158.185083,209.117932 166.722983,183.140549 167.593667,181.919612 C158.438491,178.620485 151.200118,174.568013 138.10737,190.024556 C125.014623,205.481099 112.610625,221.24937 114.131073,212.254701 C121.980224,165.729208 122.084186,148.941325 120.414292,130.887044 C119.686557,123.054863 116.099858,94.6615832 109.361804,98.0646204 Z" id="Shape" fill="#FFCF00"></path>
                        <path d="M188.431604,179.737512 C216.085566,177.594378 252.394387,173.613344 263.154481,129.672601 C273.869092,85.9461712 313.595672,79.6141842 320.938007,79.3154443 C322.322005,79.2569952 340.833785,77.8347334 340.898762,81.9131826 C340.944245,85.1603554 320.509163,83.7640711 320.691097,86.9463005 C320.814552,89.0439742 343.120955,83.1925687 343.952653,88.2451696 C344.784351,93.2977706 324.108856,90.693538 324.73263,93.4731179 C325.356403,96.2526979 347.474375,90.9143457 347.59783,95.5578029 C347.695295,99.8765428 326.915837,97.6359935 327.15625,100.688336 C327.396663,103.740679 349.001321,99.3894669 349.319705,102.740549 C349.794033,107.754184 331.776073,106.228013 325.33691,106.585202 C317.409788,107.026817 294.707028,109.494669 284.401769,154.039386 C275.350554,193.265234 209.26954,208.825687 183.850767,210.799968 L188.431604,179.737512 Z" id="Shape" fill="#FFCF00"></path>
                        <path d="M164.494292,92.648336 C168.938679,107.702229 170.693042,117.547658 162.265601,135.874701 C162.265601,135.874701 151.979835,129.003683 147.398998,136.491664 C142.81816,143.979645 154.585389,155.812342 163.81204,148.136026 C163.81204,148.136026 170.439634,156.305913 167.593667,175.197964 C167.593667,175.197964 176.774835,181.69231 187.801333,173.197706 C182.167434,168.777555 178.259427,162.525618 176.755342,155.526591 C176.755342,155.526591 188.652524,156.117577 194.169021,155.578546 C199.685519,155.039515 204.025943,153.013279 201.348915,146.486462 C198.671887,139.959645 192.564104,130.744168 195.130672,126.029273 C197.697241,121.314378 203.577606,117.729499 202.635448,113.657544 C201.69329,109.58559 189.640165,116.768336 184.578502,107.767173 C179.51684,98.7660097 170.238208,91.0442326 164.494292,92.648336 Z" id="Shape-2" fill="#FFCF00"></path>
                        <path d="M157.288408,171.203942 C157.892689,171.301357 158.503467,171.346817 159.094752,171.489693 C161.888738,172.171599 164.533278,173.399031 167.333762,174.087431 C170.495264,174.879224 173.750983,175.231074 177.00875,175.133021 C184.25362,174.678417 196.384717,169.684265 196.781073,172.178094 C197.177429,174.671922 192.837005,179.075089 192.837005,179.075089 C194.747311,179.204976 197.768715,181.718288 201.576333,189.050404 C205.38395,196.38252 223.388915,196.538384 225.617606,209.799838 C227.501922,220.970113 215.91013,227.094281 215.91013,227.094281 C214.987465,232.237803 211.91408,244.284814 216.832795,250.292084 C217.670786,251.331325 218.451654,252.415315 219.171946,253.539257 L171.537736,263.611987 C164.39033,251.532504 158.431993,238.790598 152.694575,225.990242 C161.05704,209.020517 163.70158,180.620743 163.70158,180.620743 C163.70158,180.620743 153.740696,175.003134 155.566533,172.054701 C155.982382,171.3663 156.528184,171.353312 157.288408,171.203942 Z" id="Shape" fill="#FE5171"></path>
                        <path d="M110.459906,324.204233 C110.368939,323.762617 125.190059,311.540258 137.977417,311.598708 C137.977417,311.598708 143.753821,341.342811 158.834847,347.350081 C158.834847,347.350081 161.648325,370.424491 130.557111,370.424491 C130.53112,370.424491 115.911427,350.999903 110.459906,324.204233 Z" id="Shape-3" fill="#532C9B"></path>
                        <path d="M94.9955189,330.867431 C82.5200472,316.924071 84.6382783,299.941357 72.3447406,296.382456 C60.0512028,292.823554 60.6489858,302.837835 52.4229717,305.227754 C47.6342099,306.617544 39.8435377,305.727819 34.3335377,309.676381 C28.8235377,313.624943 26.9327241,320.301131 24.6520519,322.015638 C22.3713797,323.730145 14.5807075,331.419451 18.5897524,335.588821 C23.9568042,341.180452 26.8872406,333.698966 31.773467,331.529855 C43.573184,326.334378 64.3591392,326.691567 71.1621698,342.654669 C86.1457311,339.654281 94.9955189,330.867431 94.9955189,330.867431 Z" id="Shape" fill="#FFCF00"></path>
                        <path d="M97.2631958,327.315024 C97.2631958,327.315024 121.304469,372.684523 141.447158,365.631664 C161.589847,358.578805 168.41237,298.590533 168.997158,289.699774 C169.76388,278.061906 169.815861,273.074249 171.492252,263.592504 L219.152453,253.519774 C251.894068,292.485848 241.406875,384.621131 171.875613,390.147819 C118.750896,420.85958 68.6540802,371.476575 68.9464741,340.531018 L97.2631958,327.315024 Z" id="Shape" fill="#6C40BE"></path>
                        <path d="M97.2631958,327.315024 C97.2631958,327.315024 92.0650825,326.763005 81.9157665,330.672601 C71.7664505,334.582197 68.965967,340.556995 68.965967,340.556995" id="Shape" fill="#6D4DD6"></path>
                        <path d="M164.013467,180.94546 C161.570354,181.932601 159.010283,185.575929 162.421545,185.303166 C163.864021,185.179774 166.268149,183.497738 167.91855,184.406947 C170.784009,185.998061 168.230436,190.563586 171.49875,190.095994 C173.753432,189.771276 171.323314,183.932859 175.397335,185.283683 C178.223809,186.225363 176.313502,191.355897 180.458998,190.836349 C183.441415,190.459677 181.862488,184.02378 184.773432,184.666721 C187.320507,185.231729 188.672017,191.057157 192.570601,188.797124 C195.46855,187.108595 191.4725,184.679709 192.258715,183.497738 C194.039068,180.828562 198.301521,187.173538 200.283302,183.497738 C203.161757,178.152892 196.222276,179.094572 193.623219,179.711535" id="Shape" stroke="#FFFFFF" stroke-width="1.5" fill-opacity="0" fill="#000000" stroke-linecap="round" stroke-linejoin="round"></path>
                        <path d="M162.291592,191.018191 C153.376828,200.188207 165.085578,194.408239 166.021238,195.343425 C167.522193,196.843619 164.598255,199.928433 165.923774,201.909208 C168.464351,205.727884 170.511108,198.187948 172.044552,197.928174 C175.221899,197.402132 172.609847,203.500323 176.32,203.500323 C179.776745,203.500323 178.158833,196.356543 181.648066,197.135864 C184.604493,197.817771 183.408927,202.870372 187.716863,202.006624 C191.4725,201.259774 189.15934,195.791535 192.265212,195.791535 C195.098184,195.791535 195.780436,200.95454 200.374269,199.421874 C204.396309,198.084039 198.697877,192.485913 200.770625,191.563716 C201.654304,191.174055 209.659399,195.460323 209.029127,191.115606 C208.463833,187.154055 204.285849,187.011179 200.959057,187.108595" id="Shape" stroke="#FFFFFF" stroke-width="1.5" fill-opacity="0" fill="#000000" stroke-linecap="round" stroke-linejoin="round"></path>
                        <path d="M189.523208,134.764168 C191.735119,134.880446 193.925391,134.279053 195.767441,133.049661" id="Shape" stroke="#FE5171" stroke-width="1.5" fill-opacity="0" fill="#000000" stroke-linecap="round" stroke-linejoin="round"></path>
                        <path d="M102.012972,240.115444 C101.181274,236.017512 105.450224,235.536931 107.276061,236.589015 C109.985578,238.141163 110.388432,241.914378 107.009658,241.745525 C106.171462,241.700065 104.592535,240.998675 104.183184,240.180388 C103.195542,238.199612 106.028514,237.816446 106.983667,239.582908" id="Shape" stroke="#DF3958" fill-opacity="0" fill="#000000" stroke-linecap="round" stroke-linejoin="round"></path>
                        <path d="M275.61046,167.0021 C272.933432,164.105622 268.852913,170.42462 269.970507,172.36643 C270.698243,173.619838 272.30316,173.977027 274.109505,171.600097 C276.922983,167.891826 272.563066,167.94378 271.653396,170.950662" id="Shape" stroke="#DF3958" fill-opacity="0" fill="#000000" stroke-linecap="round" stroke-linejoin="round"></path>
                        <path d="M151.011686,140.212924 C153.610743,136.316317 158.250059,138.66727 160.316309,141.868982" id="Shape" stroke="#DF3958" stroke-width="1.5" fill-opacity="0" fill="#000000" stroke-linecap="round" stroke-linejoin="round"></path>
                        <path d="M158.542453,140.3558 C156.398231,140.940291 156.177311,142.076801 155.943396,143.804297" id="Shape" stroke="#DF3958" stroke-width="1.5" fill-opacity="0" fill="#000000" stroke-linecap="round" stroke-linejoin="round"></path>
                        <path d="M205.221509,311.767561 C208.184434,330.127076 207.248774,343.654798 197.125448,364.449693 C187.002123,385.244588 175.605259,389.83609 175.605259,389.83609 C175.605259,389.83609 173.311592,390.102359 171.895106,390.167302 C181.576592,384.601648 188.13921,376.438255 194.857771,363.423586 C203.128281,347.663344 206.090662,329.656647 203.304705,312.079289 C203.211741,311.832431 203.229794,311.557495 203.35424,311.324898 C203.478687,311.092301 203.697439,310.924637 203.954469,310.864847 C204.903125,310.572601 205.221509,311.767561 205.221509,311.767561 Z" id="Shape" fill="#502CC5"></path>
                        <path d="M172.349941,262.780711 C167.593667,262.475477 166.066722,268.684071 170.94645,269.528336 C177.593538,270.671341 217.833432,259.949176 222.745649,258.254152 C227.657866,256.559128 224.961344,250.460937 218.977017,252.870339 C212.992689,255.279742 175.072453,262.956058 172.349941,262.780711 Z" id="Shape" fill="#6D4DD6"></path>
                        <path d="M203.018809,277.256607 C205.085059,262.657318 215.182394,266.911115 203.187748,277.548853" id="Shape" stroke="#FFFFFF" stroke-width="3" fill-opacity="0" fill="#000000" stroke-linecap="round" stroke-linejoin="round"></path>
                        <path d="M202.96033,277.191664 C193.584233,263.261292 192.999446,282.737835 203.441156,277.516381" id="Shape" stroke="#FFFFFF" stroke-width="3" fill-opacity="0" fill="#000000" stroke-linecap="round" stroke-linejoin="round"></path>
                        <path d="M202.992818,277.996963 C201.08053,281.334448 200.043432,285.100957 199.977913,288.94643" id="Shape" stroke="#FFFFFF" stroke-width="3" fill-opacity="0" fill="#000000" stroke-linecap="round" stroke-linejoin="round"></path>
                        <path d="M203.551616,278.061906 C206.76145,280.60769 207.703608,285.108271 207.846557,289.401034" id="Shape" stroke="#FFFFFF" stroke-width="3" fill-opacity="0" fill="#000000" stroke-linecap="round" stroke-linejoin="round"></path>
                        <path d="M180.31605,115.68378 C179.705271,115.93706 178.795601,115.177221 178.301781,113.975767 C177.80796,112.774313 177.892429,111.598837 178.509705,111.345557 C179.126981,111.092278 180.030153,111.852116 180.530472,113.047076 C181.03079,114.242036 180.933325,115.424006 180.31605,115.68378 Z" id="Shape" fill="#000000"></path>
                        <path d="M98.8941038,125.204491 C100.843396,125.107076 104.514564,128.945234 104.865436,131.887173" id="Shape" stroke="#DF3958" stroke-width="1.5" fill-opacity="0" fill="#000000" stroke-linecap="round" stroke-linejoin="round"></path>
                        <path d="M164.949127,228.698384 C172.577358,237.563166 187.190554,236.647464 196.690106,228.510048" id="Shape" stroke="#CB314D" stroke-width="3" fill-opacity="0" fill="#000000" stroke-linecap="round" stroke-linejoin="round"></path>
                        <path d="M294.629057,92.7652342 C318.020566,80.8870759 318.936733,89.4076575 299.27487,98.4542811" id="Shape" stroke="#FE5171" stroke-width="1.5" fill-opacity="0" fill="#000000" stroke-linecap="round" stroke-linejoin="round"></path>
                    </g>
                    <g id="Layer_25" transform="translate(366.000000, 109.000000)" fill-rule="nonzero">
                        <path d="M128.053101,193.239832 L187.314341,188.28363 L190.339729,121.030185 L186.44438,118.474034 L178.796512,116.360168 L160.215698,116.360168 L149.347674,116.808958 C149.347674,116.808958 142.206202,118.87079 142.206202,118.87079 C142.206202,118.87079 135.785368,133.010924 135.785368,133.010924 C135.785368,133.010924 135.272481,149.95437 134.967345,150.090958 C134.662209,150.227546 133.272868,167.886454 133.272868,167.886454 L129.909884,187.893378 L128.053101,193.239832 Z" id="Shape" fill="#FFFFF6"></path>
                        <g id="Playera" transform="translate(135.687984, 126.181513)" fill="#000000" fill-opacity="0" stroke="#000000" stroke-linecap="round" stroke-linejoin="round" stroke-width="3">
                            <path d="M2.74622093,1.88621849 C3.96027132,0.61789916 5.38856589,-0.624403361 6.94670543,0.377243697 C9.80329457,2.21793277 6.38837209,8.83270588 9.64748062,10.4652605 C13.8609496,12.5791261 14.8867248,-0.539848739 19.7948643,3.31063866 C21.7425388,4.86514286 19.3858527,13.3466218 24.339438,12.7677479 C27.1895349,12.4295294 28.0854651,4.78058824 32.0327519,6.40663866 C34.7530039,7.53186555 33.5843992,15.48 36.4734496,15.0702353 C39.7780039,14.5954286 39.5962209,6.52371429 43.7642442,7.3627563 C46.2767442,7.86357983 45.173062,13.866958 47.9712209,14.5889244 C53.6973837,16.0263529 51.7042636,1.91223529 59.7871124,8.79368067" id="Shape"></path>
                            <path d="M0.0519379845,21.4638655 C11.4912791,5.85378151 6.3624031,32.7941849 14.1660853,28.5339328 C16.1137597,27.4607395 19.3598837,16.7678319 22.3333333,20.5857983 C23.9434109,22.6801513 23.6317829,32.7876807 27.3258721,31.9486387 C31.2212209,31.057563 31.3121124,25.2297983 34.5452519,23.6102521 C37.9082364,21.9191597 37.6875,31.6104202 40.4921512,32.9047563 C43.7382752,34.4007227 41.8295543,24.1370924 52.2236434,31.0770756" id="Shape"></path>
                            <path d="M0,38.2707227 C0.649224806,37.1780168 1.94767442,35.4674118 3.49282946,36.3194622 C6.82335271,38.0755966 5.12887597,45.4253445 8.08934109,46.0757647 C11.5886628,46.8302521 12.7507752,36.5015798 16.7370155,38.2121849 C20.4635659,39.8122185 18.4185078,46.8692773 21.7295543,48.859563 C23.8525194,50.1604034 28.2218023,41.6464034 30.5330426,41.054521 C33.2338178,40.4041008 33.8440891,48.0790588 36.0060078,48.9701345 C39.6806202,50.472605 41.6477713,40.6122353 45.0432171,41.6854286 C47.4388566,42.4464202 48.1075581,45.5879496 50.5161822,46.4530084" id="Shape"></path>
                        </g>
                        <path d="M149.600872,116.366672 C153.37936,116.366672 158.690019,115.761782 155.989244,116.366672 C154.606395,116.665866 158.118702,117.914672 156.81376,117.667513 C137.843411,114.460941 138.693895,138.851697 138.018702,145.355899 C137.265601,152.60158 133.811725,190.059277 133.811725,190.059277 L139.265213,197.669193 L139.265213,216.693983 L102.369767,205.350655 C111.751066,193.311378 129.312597,155.320336 129.312597,155.320336 C129.312597,155.320336 129.312597,155.183748 109.491764,165.577462 C89.6709302,175.971176 71.6484496,174.572773 56.7227713,172.992252 C52.4573643,172.628017 48.3867248,171.320672 44.3485465,169.967798 L55.6450581,144.809546 C77.965407,148.139697 99.5456395,144.724992 117.912209,131.150723 C129.124322,122.051345 135.110174,117.07563 149.600872,116.366672 Z" id="Shape" fill="#683DBC"></path>
                        <path d="M135.15562,184.719328 C126.34564,184.550218 125.313372,194.982958 133.655911,195.965092 L133.655911,213.799613 C93.2351744,218.911916 61.5140504,241.845731 56.6124031,274.796017 C51.7107558,307.746303 64.5459302,339.051025 114.692054,345.828403 C114.692054,345.828403 136.765698,317.600168 131.020058,316.390387 L131.020058,316.390387 C93.2286822,308.364202 87.1908915,286.035277 98.3640504,268.721092 C109.809884,250.97763 138.252422,241.260353 160.689632,244.063664 C160.274128,286.62716 183.905911,309.443899 219.924903,313.71716 C228.643992,314.751328 264.117636,308.513798 277.705911,279.557092 L280.854651,275.778151 C280.854651,275.778151 259.430233,249.527193 255.885465,257.319227 C239.700291,292.858185 192.68343,279.921328 194.059787,230.40484 L193.715698,216.746017 L191.196705,182.455866 L135.15562,184.719328 Z" id="Shape" fill="#FE5171"></path>
                        <path d="M30.6693798,121.329378 C34.7854651,124.932706 34.4348837,126.604286 36.2851744,130.305176 C39.1093023,135.957328 43.1994186,142.94284 54.6647287,144.692471 L55.6450581,144.829059 L44.3485465,169.987311 C35.6164729,167.066924 27.8127907,162.084706 19.7364341,157.778924 C12.3807171,153.973966 7.68682171,153.310538 2.77218992,150.754387 C-2.14244186,148.198235 1.56463178,145.004672 5.36908915,146.155916 C9.17354651,147.30716 14.4582364,150.240555 15.5878876,148.107176 C16.2371124,146.923412 8.55678295,143.898958 4.47965116,141.154185 C0.40251938,138.409412 3.83042636,136.106924 7.40765504,138.038672 C10.9848837,139.97042 18.554845,143.346101 19.340407,141.902168 C20.125969,140.458235 11.3614341,135.911798 7.31676357,133.023933 C3.27209302,130.136067 6.16763566,128.275866 8.97228682,129.875899 C11.776938,131.475933 21.3075581,136.562218 21.6321705,135.079261 C21.878876,133.921513 17.1460271,131.079176 12.458624,127.118118 C7.77122093,123.157059 10.2772287,121.374908 15.126938,124.633513 C19.9766473,127.892118 30.0591085,135.332924 31.6432171,134.02558 C33.2273256,132.718235 29.1437016,127.423815 27.7478682,124.600992 C25.910562,120.978151 28.2153101,119.495193 30.6693798,121.329378 Z" id="Shape" fill="#FFCF00"></path>
                        <path d="M180.426066,225.838891 C166.92219,282.685613 233.72093,320.045748 264.637016,272.52605" id="Shape" stroke="#FFFFFF" stroke-width="3" fill-opacity="0" fill="#000000" stroke-linecap="round" stroke-dasharray="9"></path>
                        <path d="M224.183818,223.692504 C219.957364,229.012941 190.080039,236.700908 170.298159,227.80316 C170.298159,227.80316 185.782171,152.855244 188.301163,138.045176 C190.002132,128.002689 192.592539,118.890303 180.627326,118.025244 C178.861434,117.89516 179.887209,116.808958 179.049709,116.119513 C179.049709,116.119513 199.96124,121.036689 202.350388,121.544017 C204.739535,122.051345 200.610465,151.840588 200.610465,151.840588 L224.183818,223.692504 Z" id="Shape-4" fill="#683DBC"></path>
                        <path d="M180.101453,116.360168 C207.316957,121.979798 237.622771,124.919697 247.153391,156.686218 C255.541376,185.551866 237.038469,212.902034 208.264826,218.885899 L206.596318,193.460975 C208.290085,193.034021 209.923727,192.395968 211.459012,191.561748 C214.205233,189.799109 225.962694,183.177832 222.638663,169.109244 C219.243217,154.715445 201.590795,151.235697 193.916957,155.762622 L194.267539,124.900185 L189.372384,119.677311 L180.101453,116.360168 Z" id="Shape" fill="#683DBC"></path>
                        <path d="M258.248643,254.964706 C266.039341,242.021345 268.025969,239.744874 267.065116,231.699176 C266.104264,223.653479 271.60969,211.841849 282.523159,213.767092 C293.436628,215.692336 297.020349,225.68279 301.467539,228.811311 C307.927326,233.364252 317.444961,234.346387 326.001744,241.670118 C334.558527,248.993849 334.909109,252.343513 334.298837,254.619983 C333.045833,259.263983 325.131783,255.920824 318.146124,253.130521 C311.160465,250.340218 294.22219,243.679916 288.197384,255.315933 C283.39312,264.590924 284.353973,265.202319 284.353973,265.202319 L258.248643,254.964706 Z" id="Shape" fill="#FFCF00"></path>
                        <polygon id="Shape" fill="#DF4F6B" points="255.456977 240.746521 244.329264 263.960017 288.054554 286.783261 297.942248 266.945445"></polygon>
                        <path d="M129.312597,345.828403 C139.265213,348.742286 144.978391,348.332521 147.02345,359.558773 C149.068508,370.785025 148.743895,378.004689 148.821802,382.674706 C148.899709,387.344723 155.365988,387.754487 158.638081,384.398319 C161.910174,381.042151 165.675678,372.690756 165.182267,367.266252 C164.688857,361.841748 163.83188,356.898555 167.065019,351.363479 C170.298159,345.828403 174.92064,340.956756 171.401841,333.743597 C167.883043,326.530437 161.358333,324.969429 154.521996,327.675176 C147.685659,330.380924 138.291376,323.414924 138.291376,323.414924 L129.312597,345.828403 Z" id="Shape" fill="#FFCF00"></path>
                        <path d="M187.333818,162.487966 C187.333818,162.487966 185.645833,158.520403 190.339729,156.133361 C195.033624,153.746319 192.618508,150.123479 194.332461,149.323462 C196.046415,148.523445 199.487306,155.073176 197.870736,162.208286 L187.333818,162.487966 Z" id="Shape" fill="#FFFFFF"></path>
                        <polygon id="Shape" fill="#DF4F6B" points="126.975388 309.6 103.187791 350.576471 126.306686 358.212403 145.484787 318.43921"></polygon>
                        <path d="M179.471705,100.49642 C179.556105,107.592504 180.387112,115.631697 183.535853,122.968437 C183.535853,122.968437 161.592054,135.404471 152.373062,118.87079 C158.34593,111.644622 162.903488,101.27042 165.896415,93.1336639 C159.839147,95.976 150.886337,97.6085546 145.484787,89.140084 C142.842442,84.9969076 140.407849,74.3755462 139.34312,70.1478151 C138.278391,65.920084 129.844961,65.692437 129.332074,62.9476639 C128.819186,60.2028908 138.343314,61.7704034 143.043702,58.3947227 C147.744089,55.019042 146.82219,54.4141513 148.075194,46.8237479 C149.328198,39.2333445 154.963469,32.1437647 154.963469,32.1437647 L166.097674,18.9402353 L180.822093,20.5727899 L195.994477,34.4072269 L206.382074,49.0221681 L205.336822,63.8322353 L195.416667,78.6553109 L185.840601,88.9319496 L179.471705,100.49642 Z" id="Shape" fill="#FFCF00"></path>
                        <path d="M168.85688,2.16589916 C155.404942,6.25053782 147.757074,19.4930924 151.444671,28.2607563 C155.132267,37.0284202 169.077616,37.3211092 176.309981,34.1145378 C185.295252,30.1404706 195.1375,35.5844874 187.171512,41.4382689 C181.977713,45.2757479 178.082364,50.375042 180.763663,56.4434622 C183.444961,62.5118824 195.046609,63.1883193 188.359593,73.6080504 C181.672578,84.0277815 176.160659,98.8638655 179.471705,100.49642 C182.996996,102.220034 197.65,81.4261008 206.356105,69.5689412 C215.062209,57.7117815 227.131298,36.8397983 214.477907,31.3307395 C201.824516,25.8216807 190.657849,29.444521 189.807364,21.8411092 C188.95688,14.2376975 192.04719,-4.88465546 168.85688,2.16589916 Z" id="Shape" fill="#683DBC"></path>
                        <path d="M139.265213,69.4778824 C139.122384,68.2550924 149.561919,65.7314622 154.15843,69.8876471 C158.754942,74.0438319 164.546027,81.139916 170.739632,79.1496303 C176.933236,77.1593445 185.905523,66.5705042 187.911628,63.7736975 C189.917733,60.9768908 192.196512,66.466437 190.735756,69.7965882 C189.275,73.1267395 185.769186,82.0830252 182.354264,84.9969076 C178.939341,87.9107899 170.895446,91.8198151 165.818508,93.9011597 C160.74157,95.9825042 154.99593,98.1028739 150.516279,95.976 C141.037597,91.4750924 139.648256,72.8470588 139.265213,69.4778824 Z" id="Shape" fill="#683DBC"></path>
                        <path d="M185.191376,64.4631429 C188.943895,54.4726891 194.105233,52.5149244 198.312209,55.6044202 C203.239826,59.2207563 193.631298,78.6878319 185.113469,66.3818824 L185.191376,64.4631429 Z" id="Shape" fill="#FFCF00"></path>
                        <path d="M180.484496,183.96484 C184.762888,185.174622 187.937597,189.122672 191.242151,191.919479 C192.586047,193.064218 194.293508,194.755311 196.143798,195.119546 C199.697562,195.147214 203.232176,194.595836 206.609302,193.486992 L208.27781,218.911916 L207.790891,219.009479 C195.066085,221.318471 183.52936,220.485933 173.914341,218.91842 C167.597384,217.884252 163.293023,218.040353 163.481298,214.424017 C163.669574,210.807681 176.751453,214.59963 177.764244,212.388202 C178.777035,210.176773 163.026841,211.737782 163.026841,206.794588 C163.026841,201.851395 179.088663,207.828756 179.770349,205.493748 C180.452035,203.158739 161.858236,202.722958 163.351453,198.339126 C164.844671,193.955294 181.386919,200.58958 181.782946,199.314756 C182.178973,198.039933 164.078585,193.552034 166.065213,189.207227 C168.116764,184.712824 184.620058,197.109832 186.775484,195.340689 C188.930911,193.571546 177.179942,187.002303 179.634012,184.283546 C180.00407,183.984353 179.731395,184.146958 180.484496,183.96484 Z" id="Shape" fill="#FFCF00"></path>
                        <path d="M156.72936,56.0467059 C155.956783,56.0467059 155.327035,54.5312269 155.327035,52.6580168 C155.327035,50.7848067 155.97626,49.2693277 156.72936,49.2693277 C157.482461,49.2693277 158.125194,50.7848067 158.125194,52.6580168 C158.125194,54.5312269 157.501938,56.0467059 156.72936,56.0467059 Z" id="Shape" fill="#000000"></path>
                        <path d="M141.070058,80.4374622 C143.381298,80.0927395 147.016957,79.1951597 148.860756,77.9138319" id="Shape" stroke="#FFCF00" stroke-width="1.5" fill-opacity="0" fill="#000000" stroke-linecap="round" stroke-linejoin="round"></path>
                        <g id="Listón" transform="translate(146.724806, 193.825210)" fill="#000000" fill-opacity="0" stroke="#FFFFFF" stroke-linecap="round" stroke-linejoin="round" stroke-width="3">
                            <path d="M5.57034884,6.28305882 C6.25852713,6.54973109 2.32422481,-1.04717647 0.960852713,0.357731092 C-1.73343023,3.14152941 2.94748062,7.96764706 4.97306202,7.29121008 C5.30416667,7.17413445 10.4914729,-3.8569916 11.5367248,1.51547899 C12.7702519,7.83756303 7.57645349,8.07821849 5.27170543,7.59040336 C3.18120155,9.47662185 2.46056202,15.2588571 2.21385659,16.6962857" id="Shape"></path>
                            <path d="M5.84302326,7.29121008 C7.93352713,9.6782521 9.08914729,15.3564202 9.34883721,17.3597143" id="Shape"></path>
                        </g>
                        <path d="M196.442442,59.6370252 C192.793798,57.6337311 190.320252,61.4907227 189.437306,64.7037983" id="Shape" stroke="#FE5171" stroke-width="1.5" fill-opacity="0" fill="#000000" stroke-linecap="round" stroke-linejoin="round"></path>
                        <path d="M190.969477,61.6533277 C193.079457,61.8809748 193.903973,62.9931933 194.105233,64.5476975" id="Shape" stroke="#FE5171" stroke-width="1.5" fill-opacity="0" fill="#000000" stroke-linecap="round" stroke-linejoin="round"></path>
                        <path d="M29.9162791,148.419378 C31.8639535,148.029126 35.0516473,147.235613 38.0705426,148.965731" id="Shape" stroke="#FE5171" stroke-width="1.5" fill-opacity="0" fill="#000000" stroke-linecap="round" stroke-linejoin="round"></path>
                    </g>
                </g>
            </g>
        </g>
    </g>
</svg>