<?xml version="1.0" encoding="UTF-8"?>
<svg width="320px" height="219px" viewBox="0 0 320 219" version="1.1" xmlns="http://www.w3.org/2000/svg" xmlns:xlink="http://www.w3.org/1999/xlink">
    <!-- Generator: sketchtool 54.1 (76490) - https://sketchapp.com -->
    <title>0F78592F-CC84-42AD-A15A-85DEA9C7A40B</title>
    <desc>Created with sketchtool.</desc>
    <defs>
        <linearGradient x1="50%" y1="0%" x2="50%" y2="100%" id="linearGradient-1">
            <stop stop-color="#64D6C1" offset="0%"></stop>
            <stop stop-color="#48CFFB" offset="100%"></stop>
        </linearGradient>
        <linearGradient x1="50%" y1="0%" x2="50%" y2="100%" id="linearGradient-2">
            <stop stop-color="#64D6C1" offset="0%"></stop>
            <stop stop-color="#48CFFB" offset="100%"></stop>
        </linearGradient>
        <linearGradient x1="50%" y1="0%" x2="50%" y2="100%" id="linearGradient-3">
            <stop stop-color="#64D6C1" offset="0%"></stop>
            <stop stop-color="#48CFFB" offset="100%"></stop>
        </linearGradient>
        <linearGradient x1="50%" y1="0%" x2="50%" y2="100%" id="linearGradient-4">
            <stop stop-color="#64D6C1" offset="0%"></stop>
            <stop stop-color="#48CFFB" offset="100%"></stop>
        </linearGradient>
        <linearGradient x1="3.15755955%" y1="44.820268%" x2="101.999998%" y2="55.6357411%" id="linearGradient-5">
            <stop stop-color="#46CFFF" offset="0%"></stop>
            <stop stop-color="#6DD7AB" offset="100%"></stop>
        </linearGradient>
        <polygon id="path-6" points="0 46.2332896 156.492716 31.487864 156.492716 68.764141 0 83.5095665"></polygon>
        <filter x="-186.6%" y="-499.8%" width="373.2%" height="1122.6%" filterUnits="objectBoundingBox" id="filter-7">
            <feMorphology radius="15" operator="erode" in="SourceAlpha" result="shadowSpreadOuter1"></feMorphology>
            <feOffset dx="0" dy="32" in="shadowSpreadOuter1" result="shadowOffsetOuter1"></feOffset>
            <feGaussianBlur stdDeviation="97" in="shadowOffsetOuter1" result="shadowBlurOuter1"></feGaussianBlur>
            <feComposite in="shadowBlurOuter1" in2="SourceAlpha" operator="out" result="shadowBlurOuter1"></feComposite>
            <feColorMatrix values="0 0 0 0 0   0 0 0 0 0   0 0 0 0 0  0 0 0 0.5 0" type="matrix" in="shadowBlurOuter1"></feColorMatrix>
        </filter>
        <linearGradient x1="0%" y1="44.4991264%" x2="101.999998%" y2="55.610891%" id="linearGradient-8">
            <stop stop-color="#46CFFF" offset="0%"></stop>
            <stop stop-color="#6DD7AB" offset="100%"></stop>
        </linearGradient>
        <polygon id="path-9" points="136.711357 28.8171737 152.569943 25.977745 152.569943 29.8339602 136.711357 31.2378606"></polygon>
        <filter x="-1917.8%" y="-5273.0%" width="3941.1%" height="11867.8%" filterUnits="objectBoundingBox" id="filter-10">
            <feMorphology radius="15" operator="erode" in="SourceAlpha" result="shadowSpreadOuter1"></feMorphology>
            <feOffset dx="0" dy="32" in="shadowSpreadOuter1" result="shadowOffsetOuter1"></feOffset>
            <feGaussianBlur stdDeviation="97" in="shadowOffsetOuter1" result="shadowBlurOuter1"></feGaussianBlur>
            <feComposite in="shadowBlurOuter1" in2="SourceAlpha" operator="out" result="shadowBlurOuter1"></feComposite>
            <feColorMatrix values="0 0 0 0 0   0 0 0 0 0   0 0 0 0 0  0 0 0 0.5 0" type="matrix" in="shadowBlurOuter1"></feColorMatrix>
        </filter>
        <polygon id="path-11" points="1.38475737 88.2564801 17.2433432 85.4170514 17.2433432 89.2732665 1.38475737 90.677167"></polygon>
        <filter x="-1917.8%" y="-5273.0%" width="3941.1%" height="11867.8%" filterUnits="objectBoundingBox" id="filter-12">
            <feMorphology radius="15" operator="erode" in="SourceAlpha" result="shadowSpreadOuter1"></feMorphology>
            <feOffset dx="0" dy="32" in="shadowSpreadOuter1" result="shadowOffsetOuter1"></feOffset>
            <feGaussianBlur stdDeviation="97" in="shadowOffsetOuter1" result="shadowBlurOuter1"></feGaussianBlur>
            <feComposite in="shadowBlurOuter1" in2="SourceAlpha" operator="out" result="shadowBlurOuter1"></feComposite>
            <feColorMatrix values="0 0 0 0 0   0 0 0 0 0   0 0 0 0 0  0 0 0 0.5 0" type="matrix" in="shadowBlurOuter1"></feColorMatrix>
        </filter>
    </defs>
    <g id="Page-1" stroke="none" stroke-width="1" fill="none" fill-rule="evenodd">
        <g id="Mobile" transform="translate(0.000000, -1525.000000)">
            <g id="Group-2" transform="translate(82.000000, 1576.000000)">
                <g id="Manos" transform="translate(53.000000, 2.000000)">
                    <ellipse id="Background" fill="#7F49C0" cx="23.5000863" cy="21" rx="21.3636364" ry="21"></ellipse>
                    <path d="M5.94977729,27.5309282 C7.38214073,28.8146968 9.16321305,29.7061302 9.09500526,35.0842279 C9.07692609,36.5154811 8.96242467,38.5176172 8.79176825,40.7831373 L20.8965953,40.7831373 C21.2940632,35.5037107 21.129981,31.8549678 20.7626451,28.0678765 C20.4572167,24.9161437 18.9443187,13.502663 16.1047931,14.865264 C13.7887417,15.9767497 17.2484377,20.0932668 15.7927904,20.5414633 C14.3368693,20.9893989 8.80162962,9.99174639 6.28396803,11.1768439 C3.76658037,12.3619414 11.4162613,18.9240924 10.2572768,19.6599492 C9.66093812,20.0384495 4.55521574,11.9286238 2.64457603,13.4890892 C0.733662395,15.0498156 8.94407158,20.9862665 8.19488167,21.9719334 C7.72865819,22.585626 2.29258004,15.1915574 0.65778466,16.5815671 C-0.798410422,17.8201767 7.2807878,24.1077193 6.8000462,24.5877621 C5.79856967,25.5867418 1.7471917,19.3224313 0.2468944,20.7685635 C-1.25367683,22.2146957 4.51741384,26.2474206 5.94977729,27.5309282" id="Mano-izquierda" fill="#FFCF00"></path>
                    <path d="M40.5472593,27.5309282 C39.1148958,28.8146968 37.3338235,29.7061302 37.4020313,35.084489 C37.4201105,36.5154811 37.5346119,38.5176172 37.7052683,40.7831373 L25.6004412,40.7831373 C25.2029734,35.5037107 25.3670556,31.8549678 25.7343915,28.0678765 C26.0398199,24.9161437 27.5527178,13.502663 30.3922435,14.865264 C32.7082949,15.9767497 29.2485989,20.0932668 30.7042461,20.5414633 C32.1601673,20.9893989 37.6954069,9.99174639 40.2127946,11.1768439 C42.7304562,12.3619414 35.0807752,18.9240924 36.2394858,19.6599492 C36.8358245,20.0384495 41.9418208,11.9286238 43.8521866,13.4890892 C45.7633742,15.0500766 37.5526911,20.9862665 38.3021549,21.9719334 C38.7683784,22.585626 44.2044565,15.1915574 45.838978,16.5815671 C47.295447,17.8201767 39.2162488,24.1077193 39.6969904,24.5877621 C40.6984669,25.5867418 44.7498449,19.3224313 46.2498682,20.7685635 C47.7507134,22.2146957 41.9796227,26.2474206 40.5472593,27.5309282" id="Mano-derecha" fill="#FFCF00"></path>
                </g>
                <g id="Fóndo-">
                    <polygon id="Path-2" fill="url(#linearGradient-1)" transform="translate(61.589626, 3.141232) rotate(60.000000) translate(-61.589626, -3.141232) " points="59.8640019 5.51350521 60.1872255 0.518588601 63.31525 0.728628066 61.5839732 5.76387584"></polygon>
                    <polygon id="Path-2" fill="url(#linearGradient-2)" transform="translate(50.251801, 24.807489) rotate(358.000000) translate(-50.251801, -24.807489) " points="48.5253186 27.1686406 48.8381583 22.1929204 51.9782838 22.4094067 50.2522565 27.4220579"></polygon>
                    <polygon id="Path-2" fill="url(#linearGradient-3)" transform="translate(52.182805, 12.787198) rotate(42.000000) translate(-52.182805, -12.787198) " points="49.4118329 17.4059915 49.9370386 7.68051288 54.9537761 8.09020283 52.1701461 17.8938839"></polygon>
                    <polygon id="Path-2" fill="url(#linearGradient-1)" transform="translate(95.287689, 3.141232) rotate(60.000000) translate(-95.287689, -3.141232) " points="93.5620648 5.51350521 93.8852885 0.518588601 97.013313 0.728628066 95.2820361 5.76387584"></polygon>
                    <polygon id="Path-2" fill="url(#linearGradient-4)" transform="translate(103.986268, 21.650364) scale(-1, 1) rotate(314.000000) translate(-103.986268, -21.650364) " points="102.269668 24.0152197 102.570242 19.0274835 105.702868 19.2517234 103.992792 24.2732449"></polygon>
                    <polygon id="Path-2" fill="url(#linearGradient-3)" transform="translate(106.770972, 12.787198) rotate(42.000000) translate(-106.770972, -12.787198) " points="104 17.4059915 104.525206 7.68051288 109.541943 8.09020283 106.758313 17.8938839"></polygon>
                    <g id="Rectangle-5-Copy">
                        <use fill="black" fill-opacity="1" filter="url(#filter-7)" xlink:href="#path-6"></use>
                        <use fill-opacity="0.949999988" fill="url(#linearGradient-5)" fill-rule="evenodd" xlink:href="#path-6"></use>
                    </g>
                    <g id="Path-3">
                        <use fill="black" fill-opacity="1" filter="url(#filter-10)" xlink:href="#path-9"></use>
                        <use fill-opacity="0.949999988" fill="url(#linearGradient-8)" fill-rule="evenodd" xlink:href="#path-9"></use>
                    </g>
                    <g id="Path-3" transform="translate(9.314050, 88.047109) rotate(-180.000000) translate(-9.314050, -88.047109) ">
                        <use fill="black" fill-opacity="1" filter="url(#filter-12)" xlink:href="#path-11"></use>
                        <use fill-opacity="0.949999988" fill="url(#linearGradient-8)" fill-rule="evenodd" xlink:href="#path-11"></use>
                    </g>
                </g>
                <g id="Texto---Gracias-Totales" transform="translate(17.000000, 44.000000)">
                    <path d="M16.8989576,17.4424163 L15.5279318,26.6234751 C14.6086128,27.1655927 13.52388,27.6230045 12.2732033,27.9941221 C11.0230568,28.364181 9.73367745,28.6119457 8.40453521,28.7347692 C6.54416021,28.9073574 4.96106538,28.6934751 3.65737142,28.0925927 C2.35314728,27.4917104 1.39141452,26.5525339 0.769522279,25.2724163 C0.148690383,23.992828 -0.0967794451,22.4405927 0.0341731411,20.6157104 C0.183151589,18.5430633 0.715974865,16.6991221 1.6321128,15.0833574 C2.54931107,13.4670633 3.79044469,12.1689457 5.35763435,11.1879457 C6.924824,10.2069457 8.70938435,9.6230045 10.7118456,9.43771038 C13.5302421,9.17671038 15.7384102,9.68494568 17.33688,10.9618869 L15.5835999,14.054181 C14.8477206,13.5057104 14.1054792,13.1224163 13.3552852,12.9016516 C12.6056214,12.6808869 11.752574,12.6147104 10.7945525,12.7031221 C8.86366452,12.8820633 7.32563435,13.6317104 6.18417314,14.9515339 C5.04165159,16.2713574 4.39219038,18.0305927 4.23472918,20.2265927 C4.10112573,22.0864163 4.44202659,23.4718869 5.25743176,24.3808869 C6.07230676,25.2914751 7.37494038,25.6631221 9.16533262,25.4974163 C10.1047981,25.4100633 11.0898585,25.1697104 12.1210438,24.7747692 L12.7588412,20.6771221 L9.06353952,21.0196516 L9.50835418,18.1274751 L16.8989576,17.4424163 Z" id="Fill-1" fill="#FFFFFF"></path>
                    <path d="M28.8677059,16.2543104 C29.9132059,16.1568986 30.722249,15.8535457 31.2969559,15.3426633 C31.8700723,14.831781 32.1887059,14.1340163 32.2517964,13.2483104 C32.3117059,12.4160751 32.1256154,11.8215457 31.6935249,11.465781 C31.2609042,11.1100163 30.5669085,10.9766045 29.6094171,11.0650163 L25.2227706,11.4716045 L24.4545507,16.6630163 L28.8677059,16.2543104 Z M32.0047361,19.4609574 C32.309055,19.7579574 32.582624,20.1772516 32.8259731,20.717781 L35.1391154,26.0198398 L30.672943,26.4338398 L28.20393,20.7236045 C28.0067059,20.2847221 27.7379085,19.979781 27.3985981,19.8082516 C27.0582275,19.6383104 26.6043999,19.5784869 26.0376456,19.631428 L24.0171585,19.8183104 L22.9366671,27.1506633 L18.8432059,27.5302516 L21.647818,8.66148685 L30.3680938,7.8536045 C32.3175378,7.67254568 33.7977792,8.0113692 34.8109387,8.86742803 C35.8225076,9.72401626 36.2699731,10.9845457 36.1506843,12.6490163 C35.9115766,15.9795457 34.1349688,18.053781 30.8192706,18.8711927 C31.3054387,18.9675457 31.7004171,19.163428 32.0047361,19.4609574 L32.0047361,19.4609574 Z" id="Fill-4" fill="#FFFFFF"></path>
                    <path d="M43.5033275,18.0126457 L49.53828,17.4530574 L47.5708102,10.6411163 L43.5033275,18.0126457 Z M51.595349,24.4947633 L50.43003,20.4849986 L41.7102843,21.292881 L39.3133749,25.633528 L35.0592714,26.0274104 L46.4775947,6.36029273 L49.8012456,6.05217509 L55.6092843,24.1225869 L51.595349,24.4947633 Z" id="Fill-6" fill="#FFFFFF"></path>
                    <path d="M61.0409537,22.7747574 C59.7632382,22.171228 58.8147598,21.2256986 58.1933977,19.9371104 C57.573096,18.6485221 57.3281563,17.0920516 57.4585787,15.2671692 C57.6059667,13.2125221 58.1382598,11.377581 59.0549279,9.76128685 C59.9721262,8.14552215 61.1957641,6.84899273 62.7279624,5.87063979 C64.2585701,4.89334568 66.0081391,4.31311038 67.9756089,4.13046332 C69.2512037,4.01293391 70.4350787,4.08334568 71.5251132,4.34328685 C72.6156779,4.60269862 73.5524925,5.04846332 74.3344968,5.67952215 L72.5812167,8.77128685 C71.8278417,8.22546332 71.0808287,7.8464045 70.3385874,7.63305156 C69.5974063,7.42075744 68.7830615,7.35511038 67.8971434,7.4371692 C66.0892555,7.60499273 64.6402943,8.35093391 63.55079,9.67446332 C62.4612856,10.9990516 61.8393934,12.7323457 61.6856434,14.8754045 C61.5536305,16.7182869 61.8611305,18.0841692 62.6065529,18.973581 C63.3525055,19.8635221 64.5056305,20.236228 66.0653977,20.0916986 C67.625165,19.9471692 69.3423934,19.1991104 71.2176132,17.8459339 L72.0966391,20.6936398 C71.3575787,21.4136398 70.4122813,22.0203457 69.2586262,22.5142869 C68.1055012,23.0076986 66.9078417,23.3131692 65.6682986,23.4275221 C63.8598805,23.5953457 62.3176089,23.3777574 61.0409537,22.7747574" id="Fill-8" fill="#FFFFFF"></path>
                    <polygon id="Fill-10" fill="#FFFFFF" points="74.6706262 22.3559927 77.4757684 3.48722803 81.6233072 3.1034045 78.818165 21.9716398"></polygon>
                    <path d="M88.830524,13.812028 L94.8654766,13.2524398 L92.8974766,6.44049862 L88.830524,13.812028 Z M96.9220154,20.2936163 L95.7572266,16.284381 L87.0374809,17.0922633 L84.6400412,21.432381 L80.386468,21.8267927 L91.8047912,2.15967509 L95.1284421,1.85155744 L100.936481,19.9219692 L96.9220154,20.2936163 Z" id="Fill-12" fill="#FFFFFF"></path>
                    <path d="M105.039591,19.2245221 C103.763996,18.9730516 102.663889,18.5479339 101.737677,17.9470516 L103.490958,14.8547574 C105.261733,15.940581 107.272677,16.3778751 109.52379,16.1692869 C110.675324,16.0623457 111.570255,15.8039927 112.207522,15.3936986 C112.844259,14.9823457 113.18569,14.4486986 113.232346,13.7938163 C113.264686,13.3506986 113.127371,12.9901692 112.821992,12.709581 C112.516613,12.430581 112.113152,12.2177574 111.613729,12.0695221 C111.113246,11.9228751 110.429854,11.7571692 109.562492,11.5734633 C108.278415,11.3050516 107.237686,11.0281692 106.440837,10.741228 C105.642397,10.4548163 104.971729,9.9751692 104.430423,9.3044045 C103.888057,8.63311038 103.659022,7.72093391 103.742259,6.56999273 C103.824436,5.41905156 104.215703,4.37505156 104.917121,3.43905156 C105.617479,2.50252215 106.570199,1.74175744 107.77369,1.1551692 C108.978772,0.568051558 110.359871,0.202228028 111.920169,0.0582280281 C113.266807,-0.0667131484 114.53763,0.00952214575 115.732639,0.285875087 C116.927647,0.562228028 117.882488,0.992639793 118.598221,1.57711038 L116.817902,4.67152215 C116.080962,4.14211038 115.259195,3.7561692 114.35207,3.51422803 C113.445475,3.27334568 112.530927,3.19552215 111.610018,3.28075744 C110.492945,3.38399273 109.605436,3.66034568 108.949613,4.10769862 C108.292199,4.55611038 107.939104,5.12522803 107.889268,5.81663979 C107.855337,6.2941692 107.999014,6.67693391 108.321889,6.96387509 C108.644764,7.25081626 109.059889,7.47211038 109.567794,7.62669862 C110.076229,7.78287509 110.781889,7.9501692 111.684242,8.1301692 C112.933858,8.38375744 113.95285,8.65534568 114.742277,8.94175744 C115.531703,9.22975744 116.189647,9.69246332 116.715578,10.3293457 C117.24257,10.9672869 117.465772,11.8445221 117.385716,12.9605221 C117.256354,14.7668751 116.469048,16.2349339 115.023798,17.362581 C113.577488,18.4907574 111.614259,19.1694633 109.134113,19.399228 C107.67985,19.534228 106.315716,19.4759927 105.039591,19.2245221" id="Fill-14" fill="#FFFFFF"></path>
                    <polygon id="Fill-1" fill="#000000" points="7.93050805 35.350881 7.42260288 38.7502339 13.2979736 38.206528 11.0012667 53.674881 15.1477451 53.2910574 17.4714908 37.819528 23.3468615 37.2742339 23.8287882 33.8769986"></polygon>
                    <path d="M35.4468805,46.6054869 C36.466402,45.2793104 37.0548934,43.5179574 37.2123546,41.321428 C37.3443675,39.4790751 37.0252037,38.0962516 36.2548632,37.1734869 C35.4845227,36.2507221 34.329277,35.8610751 32.7870055,36.0040163 C31.174221,36.1533104 29.8620443,36.8955457 28.8515356,38.2296633 C27.8394365,39.5632516 27.256777,41.3208986 27.1003762,43.499428 C26.9683632,45.341781 27.2832856,46.7251339 28.0440831,47.648428 C28.8054106,48.5717221 29.9654279,48.9608398 31.5257253,48.8163104 C33.1204839,48.6680751 34.4273589,47.9316633 35.4468805,46.6054869 M26.6253417,51.4088398 C25.3221779,50.8079574 24.3503718,49.8634869 23.7125744,48.5770163 C23.0737167,47.2905457 22.8208244,45.7261339 22.9528374,43.8832516 C23.0986348,41.8466045 23.6086606,40.0180163 24.4813244,38.3969574 C25.3550486,36.7769574 26.5267296,35.4756633 27.9963675,34.4941339 C29.4670658,33.5136633 31.1227943,32.9381927 32.9656736,32.7671927 C34.7915874,32.5983104 36.3608977,32.8132516 37.6730744,33.4125457 C38.9857813,34.0128986 39.9618287,34.9563104 40.6001563,36.2433104 C41.2384839,37.5303104 41.490846,39.0947221 41.3588331,40.9370751 C41.2130356,42.974781 40.6998287,44.8038986 39.8176218,46.424428 C38.935415,48.0465457 37.7632037,49.3473104 36.3025787,50.3272516 C34.8414236,51.3071927 33.1803934,51.8831927 31.3194882,52.055781 C29.4935744,52.2246633 27.9295658,52.0097221 26.6253417,51.4088398" id="Fill-2" fill="#000000"></path>
                    <polygon id="Fill-4" fill="#000000" points="46.3324865 50.4007869 48.6291934 34.9313751 42.7543529 35.4761398 43.2622581 32.0767869 59.1600081 30.6029045 58.6786115 34.0001398 52.8032408 34.5449045 50.4794951 50.0159045"></polygon>
                    <path d="M62.4328684,41.6763457 L68.467821,41.1167574 L66.499821,34.3053457 L62.4328684,41.6763457 Z M70.5243598,48.1584633 L69.359571,44.1486986 L60.6398253,44.956581 L58.2423856,49.297228 L53.9888124,49.6911104 L65.4071356,30.0239927 L68.7302563,29.7158751 L74.5388253,47.7862869 L70.5243598,48.1584633 Z" id="Fill-6" fill="#000000"></path>
                    <polygon id="Fill-8" fill="#000000" points="76.1070753 47.6410163 78.9392563 28.7696045 83.0857348 28.385781 80.7614589 43.8573104 89.1095537 43.0838398 88.6281572 46.4810751"></polygon>
                    <polygon id="Fill-10" fill="#000000" points="106.355903 29.4228457 97.4495369 30.248728 96.7905326 34.665081 105.137567 33.891081 104.641856 37.131081 96.3202697 37.9024339 95.610899 42.6396104 104.490227 41.8169045 103.994515 45.0563751 91.0742137 46.2539045 93.9058645 27.3824927 106.826166 26.1854927"></polygon>
                    <path d="M109.373857,44.2412398 C108.098262,43.9892398 106.997624,43.5646516 106.071413,42.9632398 L107.825223,39.8714751 C109.595999,40.9567692 111.606943,41.3945927 113.857525,41.1860045 C115.00959,41.0790633 115.904521,40.8207104 116.541788,40.4098869 C117.177995,39.9990633 117.519956,39.4654163 117.566611,38.8105339 C117.598952,38.3674163 117.461637,38.0063574 117.156258,37.7262986 C116.850878,37.4472986 116.447417,37.2339457 115.947465,37.0857104 C115.447512,36.9390633 114.76359,36.7738869 113.896758,36.590181 C112.61268,36.3217692 111.571952,36.0443574 110.774572,35.7579457 C109.976133,35.4715339 109.305995,34.9918869 108.764689,34.3205927 C108.222322,33.649828 107.993288,32.7376516 108.076525,31.5867104 C108.158702,30.4357692 108.550499,29.3917692 109.251387,28.4552398 C109.951745,27.5192398 110.904465,26.7584751 112.107956,26.1713574 C113.312508,25.5847692 114.694137,25.2189457 116.254434,25.0744163 C117.601072,24.9500045 118.871896,25.0262398 120.066904,25.3020633 C121.261913,25.5784163 122.216753,26.0093574 122.931956,26.593828 L121.151637,29.6882398 C120.415227,29.158828 119.59346,28.7728869 118.686865,28.5309457 C117.77921,28.2895339 116.865193,28.2117104 115.944283,28.2974751 C114.82721,28.4007104 113.939702,28.6765339 113.283348,29.1244163 C112.626465,29.572828 112.27284,30.1414163 112.223003,30.832828 C112.189072,31.3103574 112.333279,31.6931221 112.656154,31.9800633 C112.979029,32.2670045 113.394154,32.4882986 113.902059,32.6434163 C114.410495,32.7990633 115.115624,32.9668869 116.018508,33.1463574 C117.268124,33.4004751 118.287115,33.6715339 119.076542,33.9584751 C119.865439,34.2464751 120.523913,34.7086516 121.049844,35.3460633 C121.576835,35.9840045 121.799508,36.8607104 121.719982,37.9767104 C121.59062,39.7830633 120.802783,41.2511221 119.358064,42.3787692 C117.911753,43.5074751 115.948525,44.186181 113.468378,44.4159457 C112.014115,44.5504163 110.649982,44.492181 109.373857,44.2412398" id="Fill-12" fill="#000000"></path>
                </g>
            </g>
        </g>
    </g>
</svg>