<?xml version="1.0" encoding="UTF-8"?>
<svg width="103px" height="40px" viewBox="0 0 103 40" version="1.1" xmlns="http://www.w3.org/2000/svg" xmlns:xlink="http://www.w3.org/1999/xlink">
    <!-- Generator: sketchtool 54.1 (76490) - https://sketchapp.com -->
    <title>449F1DAE-B916-498F-A52B-72EE951A27B3</title>
    <desc>Created with sketchtool.</desc>
    <g id="Page-1" stroke="none" stroke-width="1" fill="none" fill-rule="evenodd">
        <g id="Mobile" transform="translate(-109.000000, -39.000000)" fill="#FFFFFF">
            <g id="Logo-Thinking-Couch" transform="translate(109.000000, 39.000000)">
                <path d="M0,4.27595823 L0,0.423280423 L11.397541,0.423280423 L11.397541,4.27595823 L7.97874069,4.27595823 L7.97874069,21.3756614 L3.4188003,21.3756614 L3.4188003,4.27595823 L0,4.27595823 Z M18.0429542,13.278223 L18.0429542,21.5873016 L13.5081967,21.5873016 L13.5081967,0.423280423 L18.0429542,0.423280423 L18.0429542,9.28763804 L21.6373736,9.28763804 L21.6373736,0.423280423 L26.1721311,0.423280423 L26.1721311,21.5873016 L21.6373736,21.5873016 L21.6373736,13.278223 L18.0429542,13.278223 Z M29.5491803,21.5873016 L29.5491803,0.423280423 L34.192623,0.423280423 L34.192623,21.5873016 L29.5491803,21.5873016 Z M49.3893443,21.3756614 L44.8632914,21.3756614 L44.8632914,3.9059233 C44.8632914,3.73208741 44.8021286,3.5797887 44.682861,3.44902719 C44.5651224,3.31980405 44.4198606,3.25519248 44.2455464,3.25519248 L42.5024044,3.25519248 C42.3280902,3.25519248 42.1843575,3.31980405 42.0650899,3.44902719 C41.9442932,3.5797887 41.8861885,3.73208741 41.8861885,3.9059233 L41.8861885,21.3756614 L37.3586066,21.3756614 L37.3586066,4.29513109 C37.3586066,1.43222316 38.6950154,0 41.3693621,0 L45.3785887,0 C48.0514064,0 49.3893443,1.43222316 49.3893443,4.29513109 L49.3893443,21.3756614 Z M65.3842169,0.423280423 L61.8255011,10.1383441 L66.0635246,21.5873016 L61.4368881,21.5873016 L58.3295142,13.21326 L56.8745105,13.21326 L56.8745105,21.5873016 L52.3442623,21.5873016 L52.3442623,0.423280423 L56.8745105,0.423280423 L56.8745105,9.28763804 L57.9745606,9.28763804 L61.2425816,0.423280423 L65.3842169,0.423280423 Z M67.9631148,21.5873016 L67.9631148,0.423280423 L72.6065574,0.423280423 L72.6065574,21.5873016 L67.9631148,21.5873016 Z M87.8032787,21.3756614 L83.2766505,21.3756614 L83.2766505,3.9059233 C83.2766505,3.73208741 83.2154799,3.5797887 83.0977264,3.44902719 C82.9799729,3.31980405 82.8331633,3.25519248 82.6618855,3.25519248 L80.9139342,3.25519248 C80.7426563,3.25519248 80.5958468,3.31980405 80.4780933,3.44902719 C80.3603398,3.5797887 80.3022277,3.73208741 80.3022277,3.9059233 L80.3022277,21.3756614 L75.772541,21.3756614 L75.772541,4.29513109 C75.772541,1.43222316 77.1091197,0 79.7838064,0 L83.7920133,0 C86.4682292,0 87.8032787,1.43222316 87.8032787,4.29513109 L87.8032787,21.3756614 Z M97.0492798,13.0731832 L97.0492798,9.70713601 L103,9.70713601 L103,17.4855177 C103,20.3616489 101.670519,21.7989418 99.0115572,21.7989418 L94.9592263,21.7989418 C92.3002644,21.7989418 90.9692623,20.3616489 90.9692623,17.4855177 L90.9692623,4.31496955 C90.9692623,1.43729287 92.3002644,0 94.9592263,0 L99.0115572,0 C101.670519,0 103,1.43729287 103,4.31496955 L103,6.30708837 L98.7225396,6.30708837 L98.7225396,3.75859812 C98.7225396,3.58395931 98.6632149,3.43250264 98.5445656,3.30113716 C98.4274374,3.16977169 98.2844498,3.10486169 98.1095181,3.10486169 L96.0848737,3.10486169 C95.9129843,3.10486169 95.7684755,3.16977169 95.6513473,3.30113716 C95.5311769,3.43250264 95.4718522,3.58395931 95.4718522,3.75859812 L95.4718522,18.0078887 C95.4718522,18.1825275 95.5311769,18.3355296 95.6513473,18.4668951 C95.7684755,18.5967151 95.9129843,18.6616251 96.0848737,18.6616251 L98.1095181,18.6616251 C98.2844498,18.6616251 98.4274374,18.5967151 98.5445656,18.4668951 C98.6632149,18.3355296 98.7225396,18.1825275 98.7225396,18.0078887 L98.7225396,13.0731832 L97.0492798,13.0731832 Z M23.366016,36.2570287 C23.4439986,36.2570287 23.5219813,36.2709777 23.5984349,36.2988756 C23.6764175,36.3283234 23.749813,36.3779197 23.8201503,36.4476645 L25.1168033,37.7898646 C24.5495176,38.5198602 23.8400282,39.0700692 22.983748,39.4435914 C22.1289968,39.8140138 21.1198093,40 19.9531275,40 C18.8812481,40 17.92252,39.8202134 17.0738851,39.4606402 C16.2283083,39.1026168 15.5065864,38.6082036 14.9178937,37.9758507 C14.327672,37.3434978 13.8750667,36.5949035 13.5585488,35.7285181 C13.2420309,34.8621326 13.0860656,33.9198027 13.0860656,32.9046283 C13.0860656,31.8693054 13.2557926,30.9192261 13.5983047,30.0528407 C13.9377586,29.1864552 14.4194163,28.4378609 15.0386904,27.8101576 C15.6579645,27.1824544 16.3980353,26.6926908 17.26349,26.3439668 C18.1274156,25.9952428 19.0769693,25.8201058 20.1167382,25.8201058 C20.644268,25.8201058 21.1427454,25.8650525 21.6121705,25.9580455 C22.0785374,26.0494887 22.515852,26.1765793 22.921056,26.3393172 C23.3277892,26.5005052 23.7008827,26.6957906 24.0433948,26.9251735 C24.3843778,27.1530066 24.6886631,27.4009881 24.9531926,27.6675683 L23.8492027,29.1229099 C23.7788654,29.2143531 23.6947664,29.2949471 23.5984349,29.3662418 C23.5005743,29.4406362 23.366016,29.4762836 23.1932308,29.4762836 C23.0770214,29.4762836 22.9669282,29.4514854 22.8644804,29.4003392 C22.7605035,29.349193 22.6504103,29.2871977 22.5342008,29.2143531 C22.4195204,29.1415085 22.2910784,29.0624644 22.1519329,28.9772207 C22.0127873,28.8919771 21.8507057,28.8113831 21.6580426,28.7385385 C21.4684377,28.6656939 21.2467223,28.6036986 20.9913673,28.5525524 C20.7360123,28.5029561 20.4378433,28.476608 20.0983893,28.476608 C19.5555688,28.476608 19.0616786,28.5742507 18.6121314,28.772636 C18.1641134,28.9679214 17.7787872,29.2562 17.4515658,29.6343718 C17.1274026,30.0125437 16.8735767,30.4759592 16.6962043,31.0246183 C16.518832,31.5732774 16.4316749,32.1994308 16.4316749,32.9046283 C16.4316749,33.6160253 16.5295355,34.2468284 16.7267858,34.8001372 C16.924036,35.353446 17.1900946,35.8184114 17.5295485,36.1950333 C17.8674734,36.5732052 18.263503,36.8599338 18.7145792,37.0567691 C19.1656554,37.2536045 19.6488422,37.3527971 20.1656685,37.3527971 C20.4607793,37.3527971 20.7314251,37.3372983 20.9776056,37.3094003 C21.2222572,37.2815024 21.4500889,37.233456 21.6641589,37.1652611 C21.8766999,37.1001659 22.0770083,37.0102726 22.2650842,36.9002308 C22.4501019,36.7886391 22.6412359,36.6460497 22.8338989,36.4771123 C22.9118816,36.4120172 22.9944515,36.360871 23.0861958,36.3190241 C23.176411,36.2787271 23.2712135,36.2570287 23.366016,36.2570287 Z M41.7909836,32.9054027 C41.7909836,33.9082877 41.6135528,34.8429703 41.2602339,35.7063504 C40.9053722,36.5681804 40.4054801,37.3199566 39.7621003,37.9570288 C39.1171778,38.5956511 38.3426535,39.0947685 37.4354418,39.4574811 C36.5266873,39.8186437 35.5207315,40 34.4129458,40 C33.306703,40 32.2992043,39.8186437 31.3889069,39.4574811 C30.4770666,39.0947685 29.6994565,38.5956511 29.0499053,37.9570288 C28.4034399,37.3199566 27.9035477,36.5681804 27.548686,35.7063504 C27.1938243,34.8429703 27.0163934,33.9082877 27.0163934,32.9054027 C27.0163934,31.9025178 27.1938243,30.9678352 27.548686,30.1044551 C27.9035477,29.241075 28.4034399,28.492399 29.0499053,27.8584269 C29.6994565,27.2229047 30.4770666,26.7237873 31.3889069,26.3626247 C32.2992043,25.9999121 33.306703,25.8201058 34.4129458,25.8201058 C35.5207315,25.8201058 36.5266873,26.0014621 37.4354418,26.3672749 C38.3426535,26.7315376 39.1171778,27.232205 39.7621003,27.8677272 C40.4054801,28.5016993 40.9053722,29.2503754 41.2602339,30.1137555 C41.6135528,30.9771355 41.7909836,31.908718 41.7909836,32.9054027 Z M38.4151687,32.9054027 C38.4151687,32.2202789 38.324139,31.6018073 38.1405366,31.0530882 C37.96002,30.502819 37.6992738,30.0378028 37.3567551,29.6564895 C37.0157793,29.2767263 36.5976596,28.9837661 36.1023961,28.780709 C35.6071326,28.5776519 35.0455254,28.4768984 34.4129458,28.4768984 C33.7772805,28.4768984 33.2079588,28.5776519 32.7111525,28.780709 C32.2128032,28.9837661 31.7946835,29.2767263 31.4521648,29.6564895 C31.111189,30.0378028 30.847357,30.502819 30.6668404,31.0530882 C30.4832381,31.6018073 30.3922083,32.2202789 30.3922083,32.9054027 C30.3922083,33.5967268 30.4832381,34.2182985 30.6668404,34.7670176 C30.847357,35.3172868 31.111189,35.780753 31.4521648,36.1620662 C31.7946835,36.5433795 32.2128032,36.8332396 32.7111525,37.0331966 C33.2079588,37.2331536 33.7772805,37.3339071 34.4129458,37.3339071 C35.0455254,37.3339071 35.6071326,37.2331536 36.1023961,37.0331966 C36.5976596,36.8332396 37.0157793,36.5433795 37.3567551,36.1620662 C37.6992738,35.780753 37.96002,35.3172868 38.1405366,34.7670176 C38.324139,34.2182985 38.4151687,33.5967268 38.4151687,32.9054027 Z M51.0786418,37.316231 C51.5207627,37.316231 51.9165074,37.2452399 52.2674215,37.1032579 C52.6152439,36.9612759 52.9105065,36.7575625 53.1516634,36.4921179 C53.3912744,36.2251299 53.5767797,35.9010405 53.7019958,35.5198496 C53.8303036,35.1371154 53.8936846,34.7019096 53.8936846,34.2157755 L53.8936846,26.031746 L57.1987705,26.031746 L57.1987705,34.2157755 C57.1987705,35.0630378 57.0580956,35.8393092 56.7736542,36.547676 C56.4907586,37.2560429 56.0841929,37.8656397 55.5555028,38.3780096 C55.0283586,38.8903796 54.3852736,39.2885466 53.6293395,39.5725106 C52.8734055,39.8564747 52.0231729,40 51.0786418,40 C50.1263813,40 49.2715111,39.8564747 48.5140312,39.5725106 C47.759643,39.2885466 47.1181038,38.8903796 46.5909596,38.3780096 C46.0622696,37.8656397 45.6587956,37.2560429 45.3774459,36.547676 C45.0976421,35.8393092 44.9569672,35.0630378 44.9569672,34.2157755 L44.9569672,26.031746 L48.2605073,26.031746 L48.2605073,34.2065158 C48.2605073,34.6926499 48.3254341,35.1278557 48.4521961,35.5090466 C48.578958,35.8933241 48.7644633,36.2174135 49.0056202,36.4859447 C49.2452312,36.7560192 49.5404938,36.9612759 49.8898621,37.1032579 C50.2392304,37.2452399 50.634975,37.316231 51.0786418,37.316231 Z M70.8549089,36.2570287 C70.9328618,36.2570287 71.0092863,36.2709777 71.0857107,36.2988756 C71.1636637,36.3283234 71.2385596,36.3779197 71.3088701,36.4476645 L72.6065574,37.7898646 C72.0379594,38.5198602 71.327212,39.0700692 70.4727866,39.4435914 C69.6183612,39.8140138 68.6080299,40 67.4417927,40 C66.3703218,40 65.4119592,39.8202134 64.5667047,39.4606402 C63.7168648,39.1026168 62.9984749,38.6082036 62.4115351,37.9758507 C61.8184813,37.3434978 61.3660485,36.5949035 61.0496513,35.7285181 C60.736311,34.8621326 60.5758197,33.9198027 60.5758197,32.9046283 C60.5758197,31.8693054 60.7485389,30.9192261 61.0878635,30.0528407 C61.4317736,29.1864552 61.9101907,28.4378609 62.5307572,27.8101576 C63.1482668,27.1824544 63.8911125,26.6926908 64.7531804,26.3439668 C65.6183052,25.9952428 66.5674969,25.8201058 67.6068695,25.8201058 C68.1357268,25.8201058 68.6324857,25.8650525 69.1002034,25.9580455 C69.5663926,26.0494887 70.002012,26.1765793 70.411647,26.3393172 C70.8166966,26.5005052 71.189648,26.6957906 71.5305011,26.9251735 C71.8728826,27.1530066 72.173995,27.4009881 72.4399521,27.6675683 L71.3379114,29.1229099 C71.2676009,29.2143531 71.183534,29.2949471 71.0857107,29.3662418 C70.9909444,29.4406362 70.8549089,29.4762836 70.6806611,29.4762836 C70.5644959,29.4762836 70.4559732,29.4514854 70.352036,29.4003392 C70.2480987,29.349193 70.139576,29.2871977 70.0234108,29.2143531 C69.9072456,29.1415085 69.780381,29.0624644 69.6412885,28.9772207 C69.5037245,28.8919771 69.3386477,28.8113831 69.149115,28.7385385 C68.9595824,28.6656939 68.736423,28.6036986 68.4811653,28.5525524 C68.2259076,28.5029561 67.9293807,28.476608 67.5854707,28.476608 C67.045914,28.476608 66.5506836,28.5742507 66.1043647,28.772636 C65.654989,28.9679214 65.2682812,29.2562 64.9442415,29.6343718 C64.6171449,30.0125437 64.3664726,30.4759592 64.1891679,31.0246183 C64.0103347,31.5732774 63.9216823,32.1994308 63.9216823,32.9046283 C63.9216823,33.6160253 64.0210341,34.2468284 64.2166807,34.8001372 C64.4123273,35.353446 64.6828699,35.8184114 65.020666,36.1950333 C65.3569336,36.5732052 65.7528123,36.8599338 66.2037165,37.0567691 C66.6546208,37.2536045 67.1391519,37.3527971 67.6527242,37.3527971 C67.9523081,37.3527971 68.2197937,37.3372983 68.4674089,37.3094003 C68.7119672,37.2815024 68.939712,37.233456 69.1537005,37.1652611 C69.3661605,37.1001659 69.5648641,37.0102726 69.7513397,36.9002308 C69.9393439,36.7886391 70.1288765,36.6460497 70.3229947,36.4771123 C70.4009476,36.4120172 70.4850145,36.360871 70.5736669,36.3190241 C70.6638477,36.2787271 70.7586141,36.2570287 70.8549089,36.2570287 Z M87.8032787,26.031746 L87.8032787,39.7883598 L84.5321033,39.7883598 L84.5321033,33.9719184 L78.8326508,33.9719184 L78.8326508,39.7883598 L75.5614754,39.7883598 L75.5614754,26.031746 L78.8326508,26.031746 L78.8326508,31.7821089 L84.5321033,31.7821089 L84.5321033,26.031746 L87.8032787,26.031746 Z" id="Mask"></path>
            </g>
        </g>
    </g>
</svg>